<svg width="488" height="488" viewBox="0 0 488 488" fill="none" xmlns="http://www.w3.org/2000/svg">
<path d="M191.833 126.396C184.967 117.441 177.316 109.192 164.521 106.247C171.427 115.242 183.773 118.635 191.833 126.396Z" fill="#EDEAE1"/>
<path d="M53.4542 53.9735C53.8096 55.2242 54.5725 55.9871 55.9724 56.1933C56.2535 56.4744 56.4944 56.7153 56.7755 56.9964C53.4351 60.8186 53.2978 59.1891 50.658 61.0259C49.7345 60.1024 48.5125 59.4774 47.2905 58.8523C47.079 56.2532 46.8273 53.6139 44.4865 53.0638C42.7713 51.6471 41.8022 49.4842 41.9179 46.317C42.0791 44.3891 40.6193 53.0763 42.3051 56.8513C42.2805 62.4972 44.7238 65.8358 46.1226 70.219C41.7508 69.1301 36.8222 68.6782 34.8554 64.6222C32.0309 69.8558 33.4536 70.6816 34.4287 71.9551C35.2545 73.3778 36.4879 74.3127 37.3137 75.7354C37.5546 75.9763 37.7955 76.2172 37.738 76.7566C30.7281 71.2389 27.0455 87.8506 37.635 96.0525C39.9626 102.558 84.0674 146.066 107.414 166.727C106.719 167.823 106.593 168.592 106.994 168.993C107.637 169.636 108.239 170.238 108.882 170.88L60.2313 132.079C58.7972 130.943 97.8967 181.384 120.922 201.723C121.306 202.704 121.65 203.645 122.034 204.626C121.259 205.642 120.674 206.548 120.915 206.789C131.55 216.23 145.617 222.24 163.036 224.736C163.306 224.707 163.535 224.639 163.724 224.53C164.086 224.891 164.447 225.252 165.067 225.275C165.865 224.879 166.215 224.93 166.605 225.022C166.105 225.12 165.606 225.218 165.067 225.275C165.038 225.545 165.159 225.665 165.279 225.786C164.159 230.038 164.124 233.285 165.77 234.931C167.638 241.575 172.382 245.424 171.823 254.415C171.714 256.693 173.475 257.26 175.816 257.81C177.578 254.201 175.283 254.89 176.5 252.227C181.308 252.559 183.649 255.198 187.142 256.602C188.111 258.765 190.383 259.545 192.845 260.215C191.916 258.093 191.096 255.781 188.675 255.15C190.689 254.18 191.251 254.742 192.301 254.897C197.361 255.779 199.587 259.496 203.453 261.572L203.304 261.721C202.959 262.869 203.212 263.42 203.762 263.672C204.943 268.434 207.507 271.893 210.966 274.457C210.593 275.874 210.328 277.102 210.253 278.221C207.409 274.481 194.66 272.775 195.314 273.727L227.077 315.041C227.439 315.402 228.793 314.369 230.285 312.877C233.635 315.63 239.034 316.254 242.832 318.559C242.333 316.568 240.98 315.513 239.735 314.268C238.811 313.345 238.227 312.163 237.601 310.941C237.441 310.781 237.797 309.943 238.813 309.168C239.49 308.651 239.88 308.743 240.379 308.645C243.717 313.177 249.552 315.132 254.044 318.43C261.053 323.948 268.063 329.465 275.222 334.834C275.343 334.954 275.394 335.304 276.737 333.961C274.89 332.114 272.596 330.715 271.087 328.609C266.47 321.903 261.664 315.306 253.018 312.629C253.863 309.296 251.005 309.423 251.052 306.485C254.678 306.231 254.792 309.33 258.516 308.577C260.742 310.206 262.967 311.835 265.193 313.464C269.49 317.76 273.338 322.504 282.071 322.283C277.235 318.045 272.25 313.955 267.415 309.716C266.199 308.202 264.983 306.688 263.767 305.173C269.252 307.076 274.886 308.831 278.729 312.375C282.808 314.962 288.04 316.315 291.223 319.796C292.187 320.76 293.3 321.575 294.304 322.578C295.004 320.593 294.402 319.991 293.76 319.348C288.161 314.347 282.562 309.345 276.964 304.343C276.321 303.701 275.151 303.426 275.633 301.819C276.874 297.687 274.941 296.649 273.604 295.015C272.308 293.42 272.205 290.631 269.905 290.121C269.205 290.018 269.142 289.359 269.228 288.549C269.308 288.63 269.389 288.71 269.469 288.79C273.748 293.666 279.519 297.05 283.052 302.672C288.85 312.051 296.548 319.451 305.48 325.696C308.571 330.877 311.662 336.057 314.753 341.237C314.254 341.335 313.944 341.324 313.336 341.611C311.632 340.504 309.928 339.397 308.374 338.141C305.633 333.012 298.157 332.699 292.62 330.445L311.51 346.649C305.908 352.09 305.68 350.07 303.086 351.058C303.515 353.278 304.203 355.16 305.23 356.783C298.604 352.247 292.168 347.601 285.542 343.064C284.63 342.451 299.255 363.642 309.3 370.702C309.501 370.903 309.701 371.103 310.092 371.195C320.486 378.307 330.692 385.528 341.086 392.639C341.247 392.8 341.666 392.622 342.194 392.255C343.559 393.62 345.263 394.727 347.374 395.346C348.419 392.213 345.085 393.057 347.571 388.082C349.263 388.879 350.526 389.544 351.638 390.359C355.126 394.741 358.573 399.084 364.149 401.377C364.711 401.939 365.314 402.542 365.727 403.253C365.967 403.494 365.772 404.492 364.647 405.457C356.733 412.166 360.933 410.696 361.237 411.597C361.593 412.848 363.033 413.094 364.025 413.788C365.144 413.713 365.855 414.126 365.781 415.245C366.429 414.998 366.779 415.049 367.129 415.101C366.63 415.199 366.28 415.147 365.781 415.245C370.215 419.082 374.689 422.959 379.123 426.797C370.271 422.72 355.108 415.317 346.262 410.35C345.35 409.737 364.571 430.748 376.854 437.659C377.066 438.169 377.766 438.272 378.127 438.634C384.116 443.727 389.318 449.526 396.633 453.856C399.48 449.242 396.714 449.76 400.491 445.18C401.449 444.944 402.597 444.6 403.555 444.364C404.318 445.127 404.972 446.079 405.735 446.842C409.308 450.416 415.12 451.751 416.117 457.821C420.121 461.527 425.531 462.46 423.093 460.321C423.886 456.637 421.614 455.857 419.681 454.82C414.219 451.447 411.404 445.349 405.196 442.723C405.076 442.602 405.105 442.333 404.984 442.212C405.432 441.765 406.029 441.168 406.477 440.72C410.98 444.328 416.378 447.04 423.378 448.071C419.907 445.197 416.586 442.175 413.115 439.301C413.574 439.163 414.074 439.065 414.682 438.778C415.068 433.494 410.868 432.875 409.911 428.934C410.14 428.865 410.37 428.796 410.749 428.578C410.749 428.578 410.749 428.578 410.789 428.618C411.661 429.192 412.493 429.725 413.365 430.298C415.487 431.227 415.71 434.136 419.733 433.085C420.524 433.578 421.316 434.072 422.108 434.565C424.843 438.494 429.031 440.892 432.921 443.587C433.833 444.201 434.487 445.153 436.702 444.384C437.924 445.009 438.956 445.743 440.178 446.368C441.4 446.993 439.682 433.934 433.304 428.749C432.948 427.499 432.185 426.736 430.785 426.53C430.504 426.249 430.263 426.008 429.982 425.727C433.323 421.904 433.46 423.534 436.1 421.697C437.023 422.62 438.245 423.246 439.467 423.871C439.679 426.47 439.93 429.109 442.271 429.659C444.136 430.927 445.065 433.049 444.8 436.366C444.639 438.294 446.098 429.606 444.413 425.831C444.437 420.186 441.994 416.847 440.595 412.464C442.196 412.871 443.756 413.237 445.357 413.644C446.74 414.43 448.271 415.066 449.803 415.703C450.675 416.276 451.249 417.148 451.713 418.21C452.04 417.642 452.218 417.223 452.396 416.804C454.278 417.492 455.931 414.072 456.174 410.136C457.923 412.482 459.523 414.977 461.272 417.323C461.886 418.236 458.713 397.156 454.246 390.301C459.908 391.785 465.611 393.31 471.274 394.794C472.484 395.11 450.2 370.737 436.461 362.071C423.607 345.934 392.623 308.981 372.041 291.98C371.898 291.24 371.456 290.798 370.865 290.506C370.343 289.984 370.01 289.353 369.488 288.831C370.206 286.266 369.134 285.492 367.722 284.976C366.627 283.582 366.019 281.78 365.222 280.088C366.823 278.406 345.347 260.212 334.069 252.217C333.156 251.604 333.859 263.348 336.997 265.591C335.717 265.505 334.455 266.929 330.54 271.967C329.628 271.354 328.825 270.551 327.913 269.937C325.526 268.148 326.015 263.563 323.181 262.221C323.63 259.685 322.844 258.302 321.163 257.815C320.365 258.211 320.015 258.16 319.625 258.068C320.124 257.97 320.624 257.873 321.163 257.815C321.192 257.546 321.071 257.425 320.951 257.305C322.679 252.766 322.714 249.518 321.028 247.832C319.159 241.188 314.415 237.339 314.975 228.348C315.084 226.07 313.323 225.503 310.982 224.953C309.22 228.562 311.515 227.873 310.298 230.536C305.49 230.204 303.149 227.565 299.656 226.161C298.686 223.998 296.415 223.218 293.953 222.548C294.882 224.67 295.702 226.982 298.123 227.613C296.109 228.583 295.547 228.021 294.497 227.866C289.437 226.984 287.211 223.267 283.345 221.191L283.494 221.042C283.839 219.894 283.586 219.343 283.035 219.091C281.746 214.518 279.033 211.208 275.723 208.495C277.417 203.027 275.857 200.572 273.362 198.972C272.45 198.358 270.9 198.301 271.182 196.493C271.309 195.725 271.326 195.145 271.303 194.525L300.335 217.29C301.247 217.904 277.789 187.879 263.327 176.402C262.048 174.228 260.431 172.312 257.809 171.481C254.723 167.5 248.286 167.031 243.857 164.393C244.355 166.384 245.709 167.439 246.954 168.684C247.877 169.608 248.462 170.789 249.087 172.011C249.248 172.172 248.892 173.01 247.876 173.785C247.199 174.301 246.809 174.209 246.31 174.307C242.972 169.775 237.137 167.82 232.645 164.523C225.635 159.005 218.626 153.487 211.466 148.119C211.346 147.998 211.294 147.648 209.951 148.991C211.798 150.838 214.093 152.238 215.602 154.343C220.218 161.049 225.025 167.646 233.671 170.323C232.826 173.657 235.684 173.53 235.637 176.468C232.011 176.721 231.897 173.623 228.173 174.375C225.947 172.747 223.721 171.118 221.496 169.489C217.199 165.192 213.351 160.448 204.618 160.669C209.453 164.908 214.438 168.997 219.274 173.236C220.49 174.751 221.706 176.265 222.922 177.779C217.437 175.876 211.803 174.122 207.96 170.577C203.881 167.99 198.649 166.638 195.466 163.156C194.502 162.192 193.389 161.378 192.385 160.374C191.685 162.36 192.287 162.962 192.929 163.604C198.528 168.606 204.126 173.608 209.725 178.609C210.367 179.252 211.538 179.527 211.055 181.133C209.815 185.265 211.748 186.303 213.085 187.938C214.381 189.533 214.483 192.321 216.784 192.831C217.484 192.934 217.547 193.594 217.461 194.403C217.38 194.323 217.3 194.242 217.22 194.162C212.941 189.286 207.17 185.903 203.637 180.281C197.839 170.901 190.141 163.502 181.209 157.256C178.118 152.076 175.027 146.895 171.936 141.715C172.435 141.617 172.745 141.629 173.353 141.342C175.057 142.449 176.76 143.556 178.315 144.812C181.056 149.94 188.532 150.254 194.069 152.507L175.179 136.304C175.477 136.005 175.776 135.707 176.114 135.448C184.495 141.442 193.026 147.286 201.407 153.28C202.319 153.893 182.801 129.003 182.801 129.003C181.333 124.849 178.373 122.188 174.816 120.123C174.707 120.313 174.598 120.502 174.489 120.692C174.598 120.502 174.707 120.313 174.816 120.123C170.715 114.829 162.218 114.091 158.117 108.796C157.52 109.393 156.923 109.99 156.326 110.587L172.296 124.169C173.862 125.735 175.239 127.41 177.252 128.528C178.165 129.142 178.25 130.422 176.941 132.694C176.126 133.67 175.65 134.387 175.512 134.846C175.254 135.185 174.996 135.523 174.777 135.902C174.055 135.179 173.372 134.497 172.5 133.923C170.647 132.966 170.585 130.217 166.384 131.687C166.224 131.527 166.063 131.366 165.903 131.205C165.61 130.615 165.318 130.024 164.916 129.622C164.652 128.762 164.239 128.05 163.637 127.448C163.064 126.576 162.639 125.555 162.066 124.683C158.791 118.722 156.711 111.568 152.391 106.652C152.886 103.267 150.993 102.269 149.209 101.082C149.237 100.812 149.117 100.691 148.996 100.571C148.893 99.871 149.089 98.8726 148.618 98.7006C147.444 93.0493 144.628 89.0394 139.384 87.377C138.339 90.5101 141.673 89.6657 139.187 94.641C137.494 93.8439 136.232 93.1787 135.119 92.3642C131.632 87.9816 128.185 83.6392 122.609 81.3457C122.046 80.7836 121.444 80.1813 121.031 79.4699C120.79 79.229 120.986 78.2306 122.111 77.2663C130.025 70.5567 125.824 72.0268 125.52 71.126C125.165 69.8753 123.725 69.629 122.733 68.935C121.614 69.0099 120.902 68.597 120.977 67.4782C120.329 67.7251 119.979 67.6735 119.629 67.622C120.128 67.5243 120.478 67.5758 120.977 67.4782C115.74 62.8379 110.313 58.3066 105.076 53.6663C104.474 53.064 103.613 52.8003 102.007 53.2828C101.576 53.1509 101.186 53.0592 100.905 52.7781C101.123 52.3994 101.083 52.3592 101.152 52.1297C101.399 51.4813 101.497 50.9821 101.744 50.3337C103.793 48.2044 104.969 47.5901 105.709 47.7334C106.759 47.888 106.397 49.6151 109.616 47.7609C111.201 44.5703 109.503 44.6626 108.78 43.9399C102.722 39.076 97.3705 33.4259 90.2054 28.9468C87.3582 33.5607 90.1239 33.0436 86.3473 37.6233C85.389 37.8588 84.2414 38.2034 83.2831 38.4389C82.5202 37.676 81.8664 36.7238 81.1035 35.9609C77.5299 32.3873 71.718 31.052 70.7214 24.9819C66.7175 21.2764 65.3733 26.7965 67.1574 27.9837C72.6187 31.3559 75.4342 37.4543 81.6417 40.0804C81.7621 40.2008 81.7333 40.4705 81.8538 40.591C81.4061 41.0386 80.8092 41.6355 80.3616 42.0832C75.8585 38.4754 70.4601 35.763 63.4604 34.7322C66.9309 37.6058 70.2522 40.6287 73.7227 43.5023C73.2636 43.6401 72.7644 43.7378 72.1561 44.0248C71.7702 49.3094 75.97 49.9278 76.9271 53.8694C76.6976 53.9383 76.4681 54.0072 76.0893 54.2253C76.0893 54.2253 76.0893 54.2253 76.0492 54.1852C75.1772 53.6117 74.3454 53.0783 73.4734 52.5048C71.3507 51.5759 71.1278 48.6669 67.1054 49.718C66.3137 49.2248 65.522 48.7316 64.7304 48.2384C61.9946 44.3089 57.8068 41.9117 53.9174 39.2161C53.0053 38.6024 52.3514 37.6501 50.1365 38.4196C48.8744 37.7544 47.0754 48.7885 53.4542 53.9735ZM428.177 357.667C426.065 359.136 422.197 363.326 422.948 363.779C428.731 367.472 434.513 371.166 440.296 374.859C439.848 375.307 439.251 375.904 438.844 376.391C437.008 374.854 435.173 373.317 433.337 371.78C432.976 371.418 432.982 370.529 430.692 372.417C428.718 373.428 427.966 372.975 426.956 372.86C424.903 371.702 424.192 369.2 420.835 369.425C420.875 369.465 420.915 369.505 420.915 369.505C419.263 368.749 417.502 368.181 416.487 366.867C416.538 369.306 418.046 371.411 419.951 372.719C419.36 372.426 418.769 372.134 418.178 371.842C416.686 371.245 416.497 369.266 412.917 370.759C411.717 372.842 412.337 372.864 412.767 372.996C413.26 373.788 413.753 374.58 414.258 375.681C411.096 376.996 412.6 373.725 409.938 374.942C409.599 375.2 409.49 375.39 409.341 375.539C409.261 375.459 409.14 375.338 409.06 375.258C408.612 375.706 408.124 376.113 407.677 376.561C407.808 376.991 408.09 377.272 408.181 377.662C407.843 377.921 407.464 378.139 406.856 378.426C405.639 379 405.048 378.707 404.985 378.048C404.12 374.496 401.274 372.845 398.171 371.532C395.377 370.23 396.606 365.789 400.71 358.552C404.463 357.53 401.581 363.303 406.815 360.478C409.891 355.796 409.891 355.796 409.014 354.023C408.488 348.125 404.122 346.146 398.821 345.023C397.949 344.45 397.077 343.876 396.394 343.194C390.348 338.64 381.576 336.731 379.22 328.407C378.761 326.456 377.666 325.062 376.869 323.37C377.087 322.991 377.007 322.911 377.035 322.641C377.34 321.453 377.197 320.713 376.416 320.53C376.445 320.26 376.474 319.99 376.313 319.83C377.318 318.745 378.133 317.769 378.609 317.052C395.348 330.508 411.817 343.993 428.177 357.667ZM314.189 349.029C316.042 349.987 316.104 352.735 320.305 351.265C320.465 351.426 320.626 351.586 320.786 351.747C321.079 352.338 321.371 352.929 321.773 353.33C322.036 354.191 322.449 354.902 323.052 355.505C323.625 356.377 324.049 357.398 324.623 358.27C327.898 364.23 329.978 371.384 334.297 376.3C334.269 376.57 334.24 376.84 334.171 377.069C332.467 375.962 330.913 374.706 329.209 373.599C329.507 373.301 329.806 373.003 330.104 372.704L314.134 359.122C312.568 357.556 311.192 355.881 309.178 354.763C307.796 353.977 308.186 351.98 311.653 347.389C312.634 347.773 313.317 348.456 314.189 349.029ZM354.338 277.561C354.189 277.71 354 277.819 353.701 278.117C353.604 278.617 353.546 279.156 353.448 279.655C353.15 279.954 353.001 280.103 352.702 280.401C348.796 276.197 344.781 272.181 340.875 267.977C345.435 271.045 349.887 274.303 354.338 277.561ZM158.547 213.084C159.579 213.818 159.975 215.109 160.41 216.44C157.989 215.81 155.568 215.179 153.107 214.509C153.773 213.682 154.697 212.517 155.73 211.163C156.682 211.817 157.594 212.43 158.547 213.084ZM134.176 202.442C136.424 204.691 138.564 207.128 140.812 209.377C138.168 207.926 135.672 206.326 133.137 204.686C133.234 204.187 133.292 203.647 133.39 203.148C133.728 202.89 133.877 202.74 134.176 202.442ZM68.8094 110.812C70.301 111.409 70.4898 113.388 74.0705 111.895C75.2703 109.812 74.6506 109.789 74.2204 109.658C73.7271 108.866 73.2339 108.074 72.7293 106.973C75.8912 105.658 74.387 108.929 77.0496 107.712C77.3882 107.453 77.4973 107.264 77.6465 107.115C77.7268 107.195 77.8472 107.316 77.9275 107.396C78.3752 106.948 78.863 106.541 79.3107 106.093C79.1788 105.663 78.8978 105.382 78.8061 104.992C79.1447 104.733 79.5234 104.515 80.1317 104.228C81.3483 103.654 81.9392 103.946 82.0021 104.606C82.8675 108.158 85.7129 109.809 88.8166 111.122C91.6105 112.424 90.3814 116.865 86.2769 124.102C82.7537 125.055 85.2281 119.77 80.5914 121.998C79.5876 120.994 78.4346 120.139 77.3906 119.095C77.0982 118.504 76.5073 118.212 75.9164 117.919L69.1762 112.373C68.5625 111.461 67.7996 110.698 66.8875 110.084C67.6276 110.228 68.2185 110.52 68.8094 110.812Z" fill="#EDEAE1"/>
<path d="M414.611 365.29C415.45 360.757 412.26 360.253 409.518 359.301C408.489 363.943 411.082 365.044 414.611 365.29Z" fill="#EDEAE1"/>
</svg>
