<svg fill="none" height="362" viewBox="0 0 681 362" width="681" xmlns="http://www.w3.org/2000/svg" xmlns:xlink="http://www.w3.org/1999/xlink"><linearGradient id="a" gradientUnits="userSpaceOnUse" x1="340.26" x2="340.26" y1="94.1572" y2="306.917"><stop offset="0" stop-color="#fff"/><stop offset="1" stop-color="#101323"/></linearGradient><path d="m.5.5h680v360.26h-680z" fill="#1d2939"/><path d="m24.4256 33.3639h631.6684" stroke="#475467" stroke-linecap="round" stroke-width=".85125"/><path d="m24.4256 91.3339h631.6684" stroke="#475467" stroke-linecap="round" stroke-width=".85125"/><path d="m24.4256 147.176h631.6684" stroke="#475467" stroke-linecap="round" stroke-width=".85125"/><path d="m24.4256 203.018h631.6684" stroke="#475467" stroke-linecap="round" stroke-width=".85125"/><path d="m24.4256 258.86h631.6684" stroke="#475467" stroke-linecap="round" stroke-width=".85125"/><path d="m24.4256 314.702h631.6684" stroke="#475467" stroke-linecap="round" stroke-width=".85125"/><g fill="#d0d5dd"><path d="m48.7404 325.807v5.282c0 .299-.0511.572-.1532.817-.0953.245-.235.453-.4188.623-.1771.17-.3916.303-.6436.398-.2519.089-.5277.133-.8274.133-.5516 0-.9976-.146-1.3381-.439-.3337-.3-.5483-.695-.6436-1.185l.7763-.184c.0681.306.1975.558.3882.756.1907.191.4699.286.8376.286.3678 0 .6538-.112.8581-.337s.3065-.565.3065-1.022v-4.372h-2.4516v-.756zm5.5954 7.131c-.3064 0-.5277-.082-.6639-.246-.1294-.163-.2111-.367-.2452-.613h-.0511c-.1157.327-.3064.572-.572.736-.2656.163-.5823.245-.95.245-.5584 0-.9943-.143-1.3075-.429-.3065-.286-.4597-.674-.4597-1.164 0-.498.1805-.879.5414-1.145.3677-.265.9364-.398 1.7059-.398h1.0419v-.521c0-.374-.1021-.66-.3064-.858-.2043-.197-.5176-.296-.9398-.296-.3201 0-.5891.071-.807.214-.2111.143-.3882.334-.5312.572l-.4903-.459c.143-.286.3712-.528.6844-.726.3133-.204.7083-.306 1.185-.306.6401 0 1.1372.157 1.4914.47.3541.313.5311.749.5311 1.307v2.901h.6027v.716zm-2.3494-.573c.2043 0 .3916-.023.5618-.071.1703-.048.3167-.116.4393-.204.1225-.089.2179-.191.286-.307s.1021-.242.1021-.378v-.868h-1.0828c-.4698 0-.8138.068-1.0317.204-.2111.136-.3166.334-.3166.593v.214c0 .259.0919.46.2758.603.1906.143.446.214.7661.214zm3.9755.573v-5.271h.8172v.858h.0408c.1294-.3.3099-.538.5414-.715.2384-.177.555-.266.95-.266.5448 0 .9738.177 1.2871.531.3201.347.4801.841.4801 1.481v3.382h-.8172v-3.239c0-.946-.3984-1.42-1.1951-1.42-.1635 0-.3235.021-.4802.062-.1498.041-.286.102-.4086.184-.1225.081-.2213.187-.2962.316-.0681.123-.1021.269-.1021.44v3.657z"/><path d="m97.2332 332.938v-7.131h4.2498v.756h-3.3917v2.391h3.0947v.756h-3.0947v3.228zm7.3468.122c-.361 0-.688-.065-.981-.194-.286-.129-.534-.313-.745-.552-.205-.245-.365-.534-.481-.868-.109-.34-.163-.722-.163-1.144 0-.415.054-.793.163-1.134.116-.34.276-.63.481-.868.211-.245.459-.433.745-.562.293-.129.62-.194.981-.194.354 0 .671.065.95.194s.517.31.715.541c.197.225.347.494.449.807.109.314.164.658.164 1.032v.388h-3.79v.245c0 .225.034.436.102.634.075.19.177.357.307.5.136.143.299.256.49.337.197.082.419.123.664.123.334 0 .623-.078.868-.235.252-.157.446-.381.582-.674l.583.419c-.171.361-.436.653-.797.878-.361.218-.79.327-1.287.327zm0-4.832c-.225 0-.429.041-.613.123-.184.075-.344.184-.48.327-.13.143-.232.313-.307.511-.075.19-.112.401-.112.633v.071h2.911v-.112c0-.47-.129-.844-.388-1.124-.252-.286-.589-.429-1.011-.429zm3.624-2.85h.818v3.147h.04c.137-.334.334-.579.593-.736.266-.163.582-.245.95-.245.327 0 .623.065.889.194.265.129.49.313.674.552.191.238.334.527.429.868.102.34.153.722.153 1.144s-.051.804-.153 1.144c-.095.341-.238.63-.429.868-.184.239-.409.423-.674.552-.266.129-.562.194-.889.194-.715 0-1.229-.327-1.543-.981h-.04v.859h-.818zm2.176 6.947c.463 0 .828-.143 1.093-.429.266-.293.399-.675.399-1.145v-.898c0-.47-.133-.848-.399-1.134-.265-.293-.63-.44-1.093-.44-.184 0-.361.028-.531.082-.163.048-.306.116-.429.204-.123.089-.221.198-.296.327-.068.123-.102.256-.102.399v1.961c0 .17.034.323.102.46.075.129.173.241.296.337.123.088.266.156.429.204.17.048.347.072.531.072z"/><path d="m154.642 326.931h-.051l-.603 1.195-1.706 3.106-1.706-3.106-.603-1.195h-.051v6.007h-.837v-7.131h1.144l2.043 3.841h.051l2.053-3.841h1.103v7.131h-.837zm6.481 6.007c-.306 0-.527-.082-.664-.246-.129-.163-.211-.367-.245-.613h-.051c-.116.327-.306.572-.572.736-.265.163-.582.245-.95.245-.558 0-.994-.143-1.307-.429-.307-.286-.46-.674-.46-1.164 0-.498.18-.879.541-1.145.368-.265.937-.398 1.706-.398h1.042v-.521c0-.374-.102-.66-.306-.858-.205-.197-.518-.296-.94-.296-.32 0-.589.071-.807.214-.211.143-.388.334-.531.572l-.491-.459c.143-.286.372-.528.685-.726.313-.204.708-.306 1.185-.306.64 0 1.137.157 1.491.47s.531.749.531 1.307v2.901h.603v.716zm-2.349-.573c.204 0 .392-.023.562-.071s.316-.116.439-.204c.123-.089.218-.191.286-.307s.102-.242.102-.378v-.868h-1.083c-.47 0-.813.068-1.031.204-.211.136-.317.334-.317.593v.214c0 .259.092.46.276.603.19.143.446.214.766.214zm3.975.573v-5.271h.818v.97h.051c.095-.252.265-.477.51-.674.246-.198.583-.296 1.012-.296h.316v.817h-.48c-.442 0-.79.085-1.042.255-.245.164-.367.371-.367.623v3.576z"/><path d="m206.254 332.938-.715-2.105h-2.881l-.715 2.105h-.868l2.492-7.131h1.093l2.493 7.131zm-2.135-6.334h-.051l-1.206 3.473h2.462zm4.133 1.063h.817v.858h.041c.136-.334.334-.579.593-.736.265-.163.582-.245.95-.245.327 0 .623.065.888.194.266.129.491.313.675.552.19.238.333.527.429.868.102.34.153.722.153 1.144s-.051.804-.153 1.144c-.096.341-.239.63-.429.868-.184.239-.409.423-.675.552-.265.129-.561.194-.888.194-.715 0-1.23-.327-1.543-.981h-.041v2.902h-.817zm2.176 4.658c.463 0 .827-.143 1.093-.429.265-.293.398-.675.398-1.145v-.898c0-.47-.133-.848-.398-1.134-.266-.293-.63-.44-1.093-.44-.184 0-.361.028-.531.082-.164.048-.307.116-.429.204-.123.089-.222.198-.297.327-.068.123-.102.256-.102.399v1.961c0 .17.034.323.102.46.075.129.174.241.297.337.122.088.265.156.429.204.17.048.347.072.531.072zm3.75.613v-5.271h.817v.97h.051c.095-.252.265-.477.511-.674.245-.198.582-.296 1.011-.296h.317v.817h-.481c-.442 0-.789.085-1.041.255-.246.164-.368.371-.368.623v3.576z"/><path d="m259.198 326.931h-.051l-.602 1.195-1.706 3.106-1.706-3.106-.603-1.195h-.051v6.007h-.838v-7.131h1.144l2.043 3.841h.052l2.053-3.841h1.103v7.131h-.838zm6.482 6.007c-.306 0-.528-.082-.664-.246-.129-.163-.211-.367-.245-.613h-.051c-.116.327-.307.572-.572.736-.266.163-.582.245-.95.245-.559 0-.994-.143-1.308-.429-.306-.286-.459-.674-.459-1.164 0-.498.18-.879.541-1.145.368-.265.936-.398 1.706-.398h1.042v-.521c0-.374-.102-.66-.307-.858-.204-.197-.517-.296-.939-.296-.32 0-.589.071-.807.214-.212.143-.389.334-.532.572l-.49-.459c.143-.286.371-.528.684-.726.314-.204.709-.306 1.185-.306.641 0 1.138.157 1.492.47s.531.749.531 1.307v2.901h.603v.716zm-2.349-.573c.204 0 .391-.023.561-.071.171-.048.317-.116.44-.204.122-.089.218-.191.286-.307s.102-.242.102-.378v-.868h-1.083c-.47 0-.814.068-1.032.204-.211.136-.316.334-.316.593v.214c0 .259.092.46.275.603.191.143.446.214.767.214zm7.174-4.698h.807l-2.36 6.496c-.061.157-.123.286-.184.388-.061.109-.136.195-.225.256-.088.061-.201.105-.337.133-.129.027-.289.041-.48.041h-.419v-.716h.828l.398-1.123-1.971-5.475h.817l1.266 3.585.246.858h.051l.286-.858z"/><path d="m311.408 325.807v5.282c0 .299-.051.572-.153.817-.095.245-.235.453-.419.623-.177.17-.391.303-.643.398-.252.089-.528.133-.828.133-.551 0-.997-.146-1.338-.439-.333-.3-.548-.695-.643-1.185l.776-.184c.068.306.198.558.388.756.191.191.47.286.838.286s.654-.112.858-.337.306-.565.306-1.022v-4.372h-2.451v-.756zm5.014 6.272h-.041c-.055.123-.123.246-.205.368-.075.116-.17.222-.286.317-.115.088-.255.16-.418.214-.164.055-.355.082-.572.082-.545 0-.978-.174-1.298-.521-.32-.354-.48-.851-.48-1.491v-3.381h.817v3.238c0 .946.402 1.42 1.206 1.42.163 0 .32-.021.47-.062.156-.041.292-.102.408-.184.123-.081.218-.183.286-.306.075-.129.113-.283.113-.46v-3.646h.817v5.271h-.817zm2.557.859v-5.271h.817v.858h.041c.129-.3.31-.538.541-.715.239-.177.555-.266.95-.266.545 0 .974.177 1.288.531.32.347.48.841.48 1.481v3.382h-.818v-3.239c0-.946-.398-1.42-1.195-1.42-.163 0-.323.021-.48.062-.15.041-.286.102-.408.184-.123.081-.222.187-.297.316-.068.123-.102.269-.102.44v3.657z"/><path d="m363.262 325.807v5.282c0 .299-.051.572-.153.817-.096.245-.235.453-.419.623-.177.17-.392.303-.644.398-.252.089-.527.133-.827.133-.552 0-.998-.146-1.338-.439-.334-.3-.548-.695-.644-1.185l.777-.184c.068.306.197.558.388.756.19.191.47.286.837.286.368 0 .654-.112.858-.337.205-.225.307-.565.307-1.022v-4.372h-2.452v-.756zm5.013 6.272h-.041c-.054.123-.122.246-.204.368-.075.116-.17.222-.286.317-.116.088-.255.16-.419.214-.163.055-.354.082-.572.082-.545 0-.977-.174-1.297-.521-.32-.354-.48-.851-.48-1.491v-3.381h.817v3.238c0 .946.402 1.42 1.205 1.42.164 0 .32-.021.47-.062.157-.041.293-.102.409-.184.122-.081.218-.183.286-.306.075-.129.112-.283.112-.46v-3.646h.817v5.271h-.817zm3.426.859c-.286 0-.504-.079-.654-.235-.143-.164-.215-.368-.215-.613v-6.712h.818v6.844h.776v.716z"/><path d="m413.664 332.938-.715-2.105h-2.881l-.715 2.105h-.868l2.492-7.131h1.093l2.493 7.131zm-2.135-6.334h-.051l-1.205 3.473h2.461zm7.382 5.475h-.041c-.055.123-.123.246-.205.368-.074.116-.17.222-.286.317-.115.088-.255.16-.418.214-.164.055-.354.082-.572.082-.545 0-.978-.174-1.298-.521-.32-.354-.48-.851-.48-1.491v-3.381h.817v3.238c0 .946.402 1.42 1.206 1.42.163 0 .32-.021.47-.062.156-.041.292-.102.408-.184.123-.081.218-.183.286-.306.075-.129.113-.283.113-.46v-3.646h.817v5.271h-.817zm7.001 1.441c0 .545-.215.943-.644 1.195-.422.259-1.059.388-1.91.388-.824 0-1.417-.112-1.778-.337s-.541-.545-.541-.96c0-.286.075-.511.225-.674.15-.157.354-.273.613-.348v-.112c-.314-.15-.47-.395-.47-.736 0-.265.085-.466.255-.602.17-.143.388-.249.654-.317v-.041c-.313-.15-.559-.364-.736-.643-.17-.28-.255-.603-.255-.971 0-.265.048-.511.143-.735.095-.225.228-.416.398-.572.177-.164.385-.29.624-.378.245-.089.517-.133.817-.133.374 0 .708.068 1.001.204v-.092c0-.204.047-.371.143-.5.095-.136.252-.204.47-.204h.786v.715h-1.001v.337c.191.163.337.361.439.592.109.225.164.48.164.766 0 .266-.048.511-.143.736-.095.224-.232.419-.409.582-.17.157-.378.279-.623.368-.245.088-.517.133-.817.133-.17 0-.341-.018-.511-.052-.177.048-.337.12-.48.215-.143.088-.214.214-.214.378 0 .157.075.262.224.317.15.054.344.081.583.081h1.123c.654 0 1.127.126 1.42.378.3.245.45.586.45 1.022zm-.767.061c0-.211-.081-.381-.245-.511-.156-.122-.439-.184-.848-.184h-1.757c-.326.15-.49.389-.49.715 0 .232.085.43.256.593.177.163.473.245.888.245h.756c.456 0 .811-.071 1.062-.214.252-.143.378-.358.378-.644zm-1.828-3.054c.347 0 .623-.082.827-.245.205-.171.307-.429.307-.777v-.286c0-.347-.102-.602-.307-.766-.204-.17-.48-.255-.827-.255s-.623.085-.827.255c-.205.164-.307.419-.307.766v.286c0 .348.102.606.307.777.204.163.48.245.827.245z"/><path d="m463.905 333.06c-.579 0-1.072-.109-1.481-.327-.409-.225-.756-.531-1.042-.919l.633-.531c.252.333.532.589.838.766.307.17.667.255 1.083.255.511 0 .899-.122 1.164-.368.273-.245.409-.572.409-.98 0-.341-.102-.603-.306-.787-.205-.184-.542-.33-1.012-.439l-.582-.133c-.654-.15-1.154-.374-1.502-.674-.34-.306-.51-.735-.51-1.287 0-.313.058-.593.173-.838.116-.245.276-.449.48-.613.212-.163.46-.286.746-.367.293-.089.613-.133.96-.133.538 0 .998.099 1.379.296.389.198.715.487.981.868l-.644.47c-.197-.272-.435-.487-.715-.643-.279-.157-.626-.235-1.042-.235-.456 0-.817.099-1.082.296-.259.191-.388.48-.388.868 0 .341.108.6.326.777.225.17.562.306 1.012.408l.582.133c.701.157 1.209.395 1.522.715s.47.746.47 1.277c0 .327-.058.623-.174.889-.109.265-.269.49-.48.674s-.47.327-.776.429c-.3.102-.64.153-1.022.153zm5.834 0c-.361 0-.688-.065-.981-.194-.286-.129-.535-.313-.746-.552-.204-.245-.364-.534-.48-.868-.109-.34-.163-.722-.163-1.144 0-.415.054-.793.163-1.134.116-.34.276-.63.48-.868.211-.245.46-.433.746-.562.293-.129.62-.194.981-.194.354 0 .67.065.95.194.279.129.517.31.715.541.197.225.347.494.449.807.109.314.164.658.164 1.032v.388h-3.79v.245c0 .225.034.436.102.634.075.19.177.357.306.5.137.143.3.256.491.337.197.082.418.123.664.123.333 0 .623-.078.868-.235.252-.157.446-.381.582-.674l.582.419c-.17.361-.435.653-.796.878-.361.218-.79.327-1.287.327zm0-4.832c-.225 0-.429.041-.613.123-.184.075-.344.184-.48.327-.13.143-.232.313-.307.511-.075.19-.112.401-.112.633v.071h2.911v-.112c0-.47-.129-.844-.388-1.124-.252-.286-.589-.429-1.011-.429zm3.624-.561h.817v.858h.041c.136-.334.334-.579.593-.736.265-.163.582-.245.95-.245.327 0 .623.065.888.194.266.129.491.313.675.552.19.238.333.527.429.868.102.34.153.722.153 1.144s-.051.804-.153 1.144c-.096.341-.239.63-.429.868-.184.239-.409.423-.675.552-.265.129-.561.194-.888.194-.715 0-1.23-.327-1.543-.981h-.041v2.902h-.817zm2.176 4.658c.463 0 .827-.143 1.093-.429.266-.293.398-.675.398-1.145v-.898c0-.47-.132-.848-.398-1.134-.266-.293-.63-.44-1.093-.44-.184 0-.361.028-.531.082-.164.048-.307.116-.429.204-.123.089-.222.198-.296.327-.069.123-.103.256-.103.399v1.961c0 .17.034.323.103.46.074.129.173.241.296.337.122.088.265.156.429.204.17.048.347.072.531.072z"/><path d="m517.274 333.06c-.463 0-.882-.078-1.256-.235-.368-.163-.685-.398-.95-.705-.259-.313-.46-.698-.603-1.154-.143-.463-.214-.994-.214-1.594 0-.599.071-1.127.214-1.583s.344-.841.603-1.154c.265-.313.582-.548.95-.705.374-.163.793-.245 1.256-.245.457 0 .872.082 1.247.245.374.157.691.392.95.705.265.313.469.698.612 1.154s.215.984.215 1.583c0 .6-.072 1.131-.215 1.594-.143.456-.347.841-.612 1.154-.259.307-.576.542-.95.705-.375.157-.79.235-1.247.235zm0-.766c.307 0 .589-.055.848-.163.259-.109.48-.266.664-.47.191-.205.337-.45.439-.736.103-.286.154-.606.154-.96v-1.185c0-.354-.051-.674-.154-.96-.102-.286-.248-.531-.439-.736-.184-.204-.405-.361-.664-.47s-.541-.163-.848-.163c-.306 0-.589.054-.848.163-.258.109-.483.266-.674.47-.184.205-.327.45-.429.736s-.153.606-.153.96v1.185c0 .354.051.674.153.96s.245.531.429.736c.191.204.416.361.674.47.259.108.542.163.848.163zm6.446.766c-.368 0-.698-.065-.991-.194s-.541-.313-.745-.552c-.198-.238-.351-.527-.46-.868-.102-.34-.153-.722-.153-1.144s.051-.804.153-1.144c.109-.341.262-.63.46-.868.204-.239.452-.423.745-.552s.623-.194.991-.194c.524 0 .943.116 1.257.347.32.225.558.521.715.889l-.685.347c-.095-.272-.252-.483-.47-.633s-.49-.225-.817-.225c-.245 0-.46.041-.643.123-.184.075-.338.184-.46.327-.123.136-.215.303-.276.5-.061.191-.092.402-.092.634v.898c0 .464.123.845.368 1.145.252.292.62.439 1.103.439.661 0 1.137-.307 1.43-.92l.593.399c-.171.381-.426.684-.766.909-.334.225-.753.337-1.257.337zm4.341-.122c-.286 0-.504-.079-.654-.235-.143-.164-.215-.375-.215-.634v-3.687h-.868v-.715h.49c.178 0 .297-.034.358-.103.068-.075.102-.2.102-.378v-.98h.736v1.461h1.154v.715h-1.154v3.84h1.072v.716z"/><path d="m567.335 328.586-.859-1.583h-.03v5.935h-.838v-7.131h.991l2.605 4.352.858 1.583h.031v-5.935h.837v7.131h-.991zm7.406 4.474c-.354 0-.678-.065-.971-.194s-.544-.313-.756-.552c-.204-.245-.364-.534-.48-.868-.115-.34-.173-.722-.173-1.144 0-.415.058-.793.173-1.134.116-.34.276-.63.48-.868.212-.245.463-.433.756-.562s.617-.194.971-.194.674.065.96.194c.293.129.545.317.756.562.211.238.374.528.49.868.116.341.174.719.174 1.134 0 .422-.058.804-.174 1.144-.116.334-.279.623-.49.868-.211.239-.463.423-.756.552-.286.129-.606.194-.96.194zm0-.725c.442 0 .803-.136 1.083-.409.279-.272.418-.688.418-1.246v-.756c0-.558-.139-.974-.418-1.246-.28-.273-.641-.409-1.083-.409-.443 0-.804.136-1.083.409-.279.272-.419.688-.419 1.246v.756c0 .558.14.974.419 1.246.279.273.64.409 1.083.409zm4.809.603-1.849-5.271h.817l.919 2.615.572 1.797h.051l.572-1.797.94-2.615h.787l-1.859 5.271z"/><path d="m619.163 325.807h2.39c.443 0 .845.075 1.206.225.36.15.667.375.919.674.259.293.456.664.592 1.114.137.442.205.96.205 1.552 0 .593-.068 1.114-.205 1.563-.136.443-.333.814-.592 1.114-.252.293-.559.514-.919.664-.361.15-.763.225-1.206.225h-2.39zm2.39 6.375c.293 0 .562-.048.807-.143.245-.103.456-.249.634-.44.177-.19.313-.422.408-.694.102-.279.153-.596.153-.95v-1.165c0-.354-.051-.667-.153-.94-.095-.279-.231-.514-.408-.704-.178-.191-.389-.334-.634-.429-.245-.103-.514-.154-.807-.154h-1.532v5.619zm6.363.878c-.361 0-.688-.065-.981-.194-.286-.129-.534-.313-.745-.552-.205-.245-.365-.534-.48-.868-.109-.34-.164-.722-.164-1.144 0-.415.055-.793.164-1.134.115-.34.275-.63.48-.868.211-.245.459-.433.745-.562.293-.129.62-.194.981-.194.354 0 .671.065.95.194s.518.31.715.541c.198.225.347.494.45.807.109.314.163.658.163 1.032v.388h-3.79v.245c0 .225.034.436.102.634.075.19.177.357.307.5.136.143.3.256.49.337.198.082.419.123.664.123.334 0 .623-.078.868-.235.252-.157.447-.381.583-.674l.582.419c-.17.361-.436.653-.797.878-.361.218-.79.327-1.287.327zm0-4.832c-.225 0-.429.041-.613.123-.184.075-.344.184-.48.327-.129.143-.231.313-.306.511-.075.19-.113.401-.113.633v.071h2.912v-.112c0-.47-.13-.844-.389-1.124-.252-.286-.589-.429-1.011-.429zm5.586 4.832c-.368 0-.698-.065-.991-.194s-.541-.313-.746-.552c-.197-.238-.35-.527-.459-.868-.102-.34-.153-.722-.153-1.144s.051-.804.153-1.144c.109-.341.262-.63.459-.868.205-.239.453-.423.746-.552s.623-.194.991-.194c.524 0 .943.116 1.256.347.32.225.559.521.715.889l-.684.347c-.095-.272-.252-.483-.47-.633s-.49-.225-.817-.225c-.245 0-.46.041-.644.123-.183.075-.337.184-.459.327-.123.136-.215.303-.276.5-.061.191-.092.402-.092.634v.898c0 .464.123.845.368 1.145.252.292.619.439 1.103.439.661 0 1.137-.307 1.43-.92l.593.399c-.171.381-.426.684-.767.909-.333.225-.752.337-1.256.337z"/></g><path d="m38.3347 148.742-14.3347 4.896v163.192h632.52v-222.6728l-13.439 8.1328h-14.334l-6.72 7.615h-8.959c-2.389 1.269-7.347 3.807-8.063 3.807-.717 0-5.376 1.523-7.616 2.285l-19.262 2.284-11.199 3.046-17.918-3.046-9.408-2.284-13.438 5.33h-13.887l-11.647-5.33c-4.48-.762-13.618-2.285-14.335-2.285s-6.57-1.523-9.407-2.284h-7.167l-17.023 2.284-14.783 2.285-6.719 5.33-20.158 2.285-10.303 2.284-11.647 3.808-11.199 9.138h-4.928l-13.439-2.284-12.991-6.854-11.199-3.808h-6.719l-11.647-2.284-16.574 2.284h-15.679l-15.679 3.808-15.678 4.569-11.647 4.569-12.543 2.285-17.023-2.285-13.438 2.285-13.439 2.284-12.543-2.284-17.023 5.33-14.334-3.046-14.335 3.046h-13.887l-14.7826 2.285h-15.2306l-15.2307 2.284-14.7827-4.569z" fill="url(#a)" opacity=".1"/><path d="m24 153.638 14.3347-4.896 14.7827-2.285 14.7827 4.569 15.2307-2.284h15.2306l14.7826-2.285h13.887l14.335-3.046 14.334 3.046 17.023-5.33 12.543 2.284 13.439-2.284 13.438-2.285 17.023 2.285 12.543-2.285 11.647-4.569 15.678-4.569 15.679-3.808h15.679l16.574-2.284 11.647 2.284h6.719l11.199 3.808 12.991 6.854 13.439 2.284h4.928l11.199-9.138 11.647-3.808 10.303-2.284 20.158-2.285 6.719-5.33 14.783-2.285 17.023-2.284h7.167c2.837.761 8.69 2.284 9.407 2.284s9.855 1.523 14.335 2.285l11.647 5.33h13.887l13.438-5.33 9.408 2.284 17.918 3.046 11.199-3.046 19.262-2.284c2.24-.762 6.899-2.285 7.616-2.285.716 0 5.674-2.538 8.063-3.807h8.959l6.719-7.615h14.335l13.439-8.1328" stroke="#6ce9a6" stroke-linecap="round" stroke-linejoin="round" stroke-width="1.7025"/><path d="m24 212.879 14.3347-3.119 14.7827-1.455 14.7827 2.91 15.2307-1.455h15.2306l14.7826-1.455h13.887l14.335-1.94 14.334 1.94 17.023-3.396 12.543 1.456 13.439-1.456 13.438-1.455 17.023 1.455 12.543-1.455 11.647-2.91 15.678-2.911 15.679-2.425h15.679l16.574-1.455 11.647 1.455h6.719l11.199 2.425 12.991 4.366 13.439 1.455h4.928l11.199-5.821 11.647-2.425 10.303-1.455 20.158-1.455 6.719-3.396 14.783-1.455 17.023-1.455h7.167c2.837.485 8.69 1.455 9.407 1.455s9.855.97 14.335 1.455l11.647 3.396h13.887l13.438-3.396 9.408 1.455 17.918 1.941 11.199-1.941 19.262-1.455c2.24-.485 6.899-1.455 7.616-1.455.716 0 5.674-1.617 8.063-2.425h8.959l6.72-4.851h14.334l13.439-5.181" stroke="#7cd4fd" stroke-linecap="round" stroke-linejoin="round" stroke-width="1.7025"/><path d="m24 287.852 14.3347-8.287 14.7827-3.866 14.7827 7.732 15.2307-3.866h15.2306l14.7826-3.866h13.887l14.335-5.155 14.334 5.155 17.023-9.021 12.543 3.866 13.439-3.866 13.438-3.866 17.023 3.866 12.543-3.866 11.647-7.732 15.678-7.732 15.679-6.444h15.679l16.574-3.866 11.647 3.866h6.719l11.199 6.444 12.991 11.598 13.439 3.866h4.928l11.199-15.464 11.647-6.444 10.303-3.866 20.158-3.866 6.719-9.021 14.783-3.866 17.023-3.866h7.167c2.837 1.289 8.69 3.866 9.407 3.866s9.855 2.577 14.335 3.866l11.647 9.021h13.887l13.438-9.021 9.408 3.866 17.918 5.155 11.199-5.155 19.262-3.866c2.24-1.289 6.899-3.866 7.616-3.866.716 0 5.674-4.296 8.063-6.443h8.959l6.72-12.887h14.334l13.439-13.763" stroke="#faa7e0" stroke-linecap="round" stroke-linejoin="round" stroke-width="1.7025"/><path d="m.5.5h680v360.26h-680z" stroke="#344054"/></svg>