<svg width="24" height="16" viewBox="0 0 24 16" fill="none" xmlns="http://www.w3.org/2000/svg">
<path d="M0.283607 13.7761C0.275989 14.1225 0.376388 14.4626 0.571 14.7492C0.765613 15.0358 1.04482 15.2546 1.36955 15.3753C1.69428 15.4959 2.04849 15.5124 2.38302 15.4224C2.71755 15.3324 3.0156 15.1404 3.23598 14.8731L11.9729 4.67457L20.7068 14.8731C20.8427 15.058 21.0152 15.2129 21.2138 15.328C21.4123 15.4431 21.6325 15.516 21.8604 15.542C22.0884 15.5681 22.3193 15.5468 22.5387 15.4796C22.758 15.4123 22.9612 15.3004 23.1354 15.151C23.3095 15.0016 23.4508 14.8178 23.5506 14.6112C23.6504 14.4046 23.7065 14.1796 23.7153 13.9503C23.7242 13.721 23.6857 13.4923 23.6021 13.2786C23.5185 13.0649 23.3917 12.8708 23.2296 12.7084L13.2392 1.03199C13.0827 0.84863 12.8885 0.701388 12.6696 0.600423C12.4507 0.499458 12.2125 0.447174 11.9714 0.447174C11.7303 0.447174 11.4921 0.499458 11.2732 0.600423C11.0543 0.701388 10.8599 0.84863 10.7034 1.03199L0.703451 12.7084C0.441455 13.0034 0.292889 13.3817 0.283607 13.7761Z" fill="white"/>
</svg>
