<svg width="136" height="27" viewBox="0 0 136 27" fill="none" xmlns="http://www.w3.org/2000/svg">
<path d="M20.3489 11.703C19.9699 12.0843 19.6797 12.5444 19.4989 13.0507C19.3181 13.557 19.2512 14.0969 19.3029 14.632L19.2849 14.614C19.3381 15.2438 19.2531 15.8777 19.036 16.4713C18.8189 17.065 18.4749 17.6041 18.028 18.051C17.581 18.498 17.0419 18.842 16.4483 19.0591C15.8546 19.2762 15.2207 19.3611 14.5909 19.308L14.6089 19.326C13.8555 19.2558 13.0988 19.4198 12.4419 19.7955C11.7851 20.1712 11.2601 20.7403 10.9386 21.4253C10.6171 22.1102 10.5146 22.8777 10.6452 23.623C10.7759 24.3684 11.1332 25.0552 11.6685 25.5901C12.2038 26.1249 12.891 26.4816 13.6364 26.6115C14.3819 26.7414 15.1492 26.6383 15.8339 26.3162C16.5186 25.994 17.0872 25.4685 17.4623 24.8114C17.8374 24.1542 18.0007 23.3973 17.9299 22.644L17.9489 22.662C17.8957 22.0321 17.9807 21.3983 18.1977 20.8046C18.4148 20.211 18.7589 19.6719 19.2058 19.2249C19.6528 18.778 20.1919 18.4339 20.7855 18.2168C21.3792 17.9997 22.013 17.9148 22.6429 17.968L22.6239 17.95C23.2393 18.0053 23.8588 17.9044 24.4249 17.6566C24.9909 17.4088 25.4853 17.0221 25.8621 16.5324C26.239 16.0426 26.4861 15.4657 26.5805 14.855C26.675 14.2444 26.6138 13.6197 26.4026 13.039C26.1914 12.4583 25.837 11.9403 25.3723 11.533C24.9076 11.1257 24.3476 10.8423 23.7442 10.7091C23.1408 10.5758 22.5136 10.5971 21.9205 10.7708C21.3275 10.9446 20.788 11.2652 20.3519 11.703H20.3489Z" fill="#333333"/>
<path d="M12.9719 16.968L12.9529 16.95C13.4882 17.0039 14.0288 16.9382 14.5357 16.7576C15.0425 16.577 15.5029 16.286 15.8835 15.9057C16.264 15.5254 16.5554 15.0653 16.7363 14.5586C16.9173 14.0519 16.9834 13.5113 16.9299 12.976L16.9489 12.994C16.8957 12.3641 16.9807 11.7303 17.1977 11.1366C17.4148 10.543 17.7589 10.0039 18.2058 9.55691C18.6528 9.10995 19.1919 8.76592 19.7855 8.54883C20.3792 8.33174 21.013 8.24681 21.6429 8.29997L21.6239 8.28198C22.3774 8.35274 23.1343 8.18934 23.7915 7.81408C24.4488 7.43881 24.9742 6.86995 25.2962 6.18508C25.6182 5.50021 25.7211 4.73268 25.5909 3.98718C25.4607 3.24167 25.1037 2.55449 24.5685 2.01935C24.0334 1.48421 23.3462 1.12718 22.6007 0.996953C21.8552 0.866724 21.0877 0.969635 20.4028 1.29165C19.7179 1.61367 19.1491 2.13912 18.7738 2.79632C18.3985 3.45353 18.2351 4.21049 18.3059 4.96397L18.2879 4.94497C18.3412 5.57486 18.2564 6.20881 18.0394 6.80253C17.8224 7.39625 17.4783 7.93544 17.0314 8.38243C16.5844 8.82943 16.0452 9.17345 15.4514 9.39048C14.8577 9.60752 14.2238 9.69232 13.5939 9.63897L13.6119 9.65798C13.0766 9.60404 12.5359 9.66974 12.0291 9.85033C11.5223 10.0309 11.0619 10.3219 10.6813 10.7022C10.3007 11.0825 10.0094 11.5427 9.82845 12.0493C9.64747 12.556 9.58136 13.0966 9.6349 13.632L9.6169 13.614C9.66989 14.2438 9.58484 14.8776 9.36768 15.4711C9.15053 16.0647 8.80649 16.6037 8.35957 17.0507C7.91266 17.4976 7.37362 17.8416 6.78006 18.0588C6.1865 18.2759 5.55271 18.361 4.9229 18.308L4.9409 18.326C4.18742 18.2552 3.43045 18.4186 2.77324 18.7939C2.11604 19.1691 1.59059 19.738 1.26857 20.4229C0.946556 21.1077 0.843643 21.8753 0.973872 22.6208C1.1041 23.3663 1.46113 24.0535 1.99627 24.5886C2.53141 25.1237 3.21859 25.4808 3.9641 25.611C4.70961 25.7412 5.47714 25.6383 6.16201 25.3163C6.84687 24.9943 7.41573 24.4688 7.791 23.8116C8.16626 23.1544 8.32966 22.3975 8.2589 21.644L8.2779 21.662C8.22473 21.0321 8.30966 20.3983 8.52675 19.8046C8.74384 19.211 9.08787 18.6719 9.53483 18.2249C9.98178 17.778 10.5209 17.4339 11.1145 17.2168C11.7082 16.9997 12.342 16.9148 12.9719 16.968Z" fill="#333333"/>
<path d="M6.2699 14.961C6.64892 14.5798 6.9391 14.1196 7.11974 13.6133C7.30038 13.107 7.36702 12.567 7.3149 12.032L7.3339 12.05C7.28069 11.4199 7.36565 10.7859 7.58286 10.1921C7.80007 9.5983 8.14429 9.05907 8.59147 8.61208C9.03865 8.16509 9.57802 7.8211 10.1719 7.60415C10.7658 7.38719 11.3999 7.30249 12.0299 7.35597L12.0109 7.33797C12.7641 7.40854 13.5208 7.24505 14.1777 6.86981C14.8346 6.49458 15.3597 5.92585 15.6816 5.2412C16.0034 4.55654 16.1062 3.78929 15.976 3.04406C15.8458 2.29883 15.4888 1.61191 14.9539 1.07697C14.419 0.542031 13.732 0.185112 12.9868 0.0548883C12.2416 -0.0753355 11.4743 0.0274752 10.7897 0.349299C10.105 0.671123 9.53629 1.19629 9.16105 1.85319C8.78582 2.5101 8.62233 3.26675 8.6929 4.01997L8.6749 4.00197C8.72807 4.63182 8.64314 5.26569 8.42604 5.85933C8.20895 6.45297 7.86492 6.99208 7.41796 7.43904C6.97101 7.886 6.43189 8.23003 5.83825 8.44712C5.24461 8.66421 4.61075 8.74914 3.9809 8.69597L3.9989 8.71397C3.38347 8.65878 2.76406 8.75983 2.19808 9.00775C1.6321 9.25567 1.13786 9.64244 0.761145 10.1322C0.384435 10.622 0.137448 11.199 0.0430726 11.8096C-0.0513028 12.4203 0.00998625 13.0448 0.221261 13.6255C0.432535 14.2062 0.78696 14.7241 1.25169 15.1313C1.71642 15.5385 2.27642 15.8218 2.8798 15.955C3.48317 16.0882 4.1104 16.0669 4.70337 15.8931C5.29633 15.7194 5.83584 15.3988 6.2719 14.961H6.2699Z" fill="#333333"/>
<path d="M37.2469 4.98697H40.2169V19.44H37.2469V4.98697Z" fill="#333333"/>
<path d="M41.8989 14.491C41.8947 13.4523 42.1989 12.4358 42.7729 11.5702C43.347 10.7046 44.165 10.0288 45.1234 9.62843C46.0818 9.22808 47.1374 9.12117 48.1566 9.32125C49.1758 9.52133 50.1127 10.0194 50.8486 10.7524C51.5845 11.4853 52.0863 12.4202 52.2905 13.4386C52.4946 14.457 52.392 15.513 51.9955 16.473C51.599 17.433 50.9265 18.2537 50.0631 18.8312C49.1998 19.4087 48.1846 19.717 47.1459 19.717C46.4564 19.7248 45.7723 19.5952 45.1336 19.3356C44.4948 19.076 43.9142 18.6917 43.4256 18.2051C42.9371 17.7186 42.5505 17.1395 42.2883 16.5018C42.0262 15.864 41.8938 15.1805 41.8989 14.491ZM49.4229 14.491C49.4105 14.0433 49.2664 13.6092 49.0087 13.2429C48.7509 12.8766 48.3909 12.5945 47.9737 12.4317C47.5564 12.269 47.1004 12.2328 46.6628 12.3278C46.2251 12.4227 45.8251 12.6446 45.5128 12.9657C45.2005 13.2867 44.9898 13.6927 44.907 14.1328C44.8242 14.573 44.873 15.0278 45.0473 15.4404C45.2215 15.8529 45.5136 16.205 45.8868 16.4525C46.2601 16.7 46.698 16.832 47.1459 16.832C47.4526 16.8402 47.7577 16.7847 48.0419 16.6691C48.3262 16.5535 48.5833 16.3803 48.7973 16.1603C49.0112 15.9404 49.1773 15.6785 49.2849 15.3912C49.3926 15.1039 49.4396 14.7974 49.4229 14.491Z" fill="#333333"/>
<path d="M64.2299 9.54097V18.941C64.2299 22.267 61.6359 23.673 59.0029 23.673C58.0758 23.7424 57.1476 23.5551 56.3199 23.1317C55.4923 22.7084 54.7972 22.0653 54.3109 21.273L56.8449 19.808C57.0493 20.221 57.375 20.5617 57.7783 20.7846C58.1817 21.0074 58.6435 21.1018 59.1019 21.055C59.3949 21.0956 59.6933 21.0698 59.9749 20.9795C60.2566 20.8892 60.5144 20.7367 60.7292 20.5334C60.944 20.33 61.1103 20.0809 61.2158 19.8046C61.3214 19.5283 61.3634 19.2317 61.3389 18.937V18.032C60.9911 18.4575 60.5484 18.7956 60.0464 19.0191C59.5443 19.2426 58.9968 19.3453 58.4479 19.319C57.1417 19.2778 55.9028 18.7299 54.9934 17.7914C54.084 16.8529 53.5755 15.5973 53.5755 14.2905C53.5755 12.9836 54.084 11.7281 54.9934 10.7895C55.9028 9.851 57.1417 9.30317 58.4479 9.26197C58.9968 9.23563 59.5443 9.33833 60.0464 9.56184C60.5484 9.78535 60.9911 10.1234 61.3389 10.549V9.53897L64.2299 9.54097ZM61.3399 14.292C61.3599 13.8133 61.2361 13.3397 60.9846 12.9319C60.7331 12.5242 60.3653 12.2011 59.9286 12.0042C59.4919 11.8072 59.0062 11.7455 58.5342 11.8269C58.0621 11.9083 57.6251 12.1291 57.2796 12.4609C56.9341 12.7928 56.6958 13.2204 56.5953 13.6888C56.4949 14.1572 56.5369 14.645 56.716 15.0893C56.8951 15.5336 57.2031 15.9142 57.6004 16.182C57.9976 16.4498 58.4658 16.5926 58.9449 16.592C59.2569 16.6137 59.5701 16.5699 59.8642 16.4633C60.1583 16.3567 60.4268 16.1897 60.6524 15.973C60.878 15.7564 61.0558 15.4948 61.1742 15.2053C61.2926 14.9158 61.349 14.6046 61.3399 14.292Z" fill="#333333"/>
<path d="M65.9119 14.491C65.9077 13.4523 66.2119 12.4358 66.7859 11.5702C67.36 10.7046 68.178 10.0288 69.1364 9.62843C70.0948 9.22808 71.1504 9.12117 72.1696 9.32125C73.1888 9.52133 74.1257 10.0194 74.8616 10.7524C75.5975 11.4853 76.0993 12.4202 76.3035 13.4386C76.5076 14.457 76.405 15.513 76.0085 16.473C75.612 17.433 74.9395 18.2537 74.0761 18.8312C73.2128 19.4087 72.1975 19.717 71.1589 19.717C70.4694 19.7248 69.7853 19.5952 69.1466 19.3356C68.5078 19.076 67.9272 18.6917 67.4386 18.2051C66.9501 17.7186 66.5635 17.1395 66.3013 16.5018C66.0392 15.864 65.9068 15.1805 65.9119 14.491ZM73.4359 14.491C73.4235 14.0433 73.2794 13.6092 73.0217 13.2429C72.7639 12.8766 72.4039 12.5945 71.9866 12.4317C71.5694 12.269 71.1134 12.2328 70.6757 12.3278C70.2381 12.4227 69.8381 12.6446 69.5258 12.9657C69.2135 13.2867 69.0028 13.6927 68.92 14.1328C68.8372 14.573 68.886 15.0278 69.0603 15.4404C69.2345 15.8529 69.5266 16.205 69.8998 16.4525C70.2731 16.7 70.711 16.832 71.1589 16.832C71.4656 16.8402 71.7707 16.7847 72.0549 16.6691C72.3392 16.5535 72.5963 16.3803 72.8103 16.1603C73.0242 15.9404 73.1903 15.6785 73.2979 15.3912C73.4056 15.1039 73.4526 14.7974 73.4359 14.491Z" fill="#333333"/>
<path d="M77.7909 6.88797C77.7909 6.53553 77.8954 6.191 78.0912 5.89795C78.287 5.6049 78.5653 5.37649 78.891 5.24162C79.2166 5.10674 79.5749 5.07145 79.9205 5.14021C80.2662 5.20897 80.5837 5.37869 80.833 5.62791C81.0822 5.87713 81.2519 6.19465 81.3207 6.54032C81.3894 6.886 81.3541 7.2443 81.2192 7.56992C81.0844 7.89553 80.856 8.17384 80.5629 8.36965C80.2699 8.56546 79.9253 8.66998 79.5729 8.66998C79.1017 8.66529 78.6512 8.47604 78.318 8.14286C77.9848 7.80968 77.7956 7.35914 77.7909 6.88797ZM78.0909 9.54097H81.0619V19.441H78.0869L78.0909 9.54097Z" fill="#333333"/>
<path d="M93.8859 14.491C93.9202 15.1453 93.8249 15.7999 93.6053 16.4172C93.3858 17.0345 93.0463 17.6023 92.6066 18.0879C92.1668 18.5736 91.6354 18.9676 91.0429 19.2471C90.4503 19.5267 89.8084 19.6864 89.1539 19.717C88.6035 19.747 88.0533 19.6542 87.5433 19.4452C87.0332 19.2363 86.576 18.9165 86.2049 18.509V23.4H83.2349V9.54097H86.2049V10.471C86.5762 10.0638 87.0335 9.7442 87.5435 9.53544C88.0535 9.32669 88.6036 9.23396 89.1539 9.26397C89.8085 9.29444 90.4506 9.45406 91.0433 9.73365C91.6359 10.0132 92.1675 10.4073 92.6073 10.8931C93.0471 11.3789 93.3865 11.9469 93.6059 12.5643C93.8253 13.1818 93.9205 13.8366 93.8859 14.491ZM90.9159 14.491C90.9043 14.0276 90.7563 13.578 90.4904 13.1984C90.2245 12.8188 89.8526 12.526 89.4211 12.3567C88.9897 12.1875 88.5179 12.1492 88.0648 12.2467C87.6117 12.3443 87.1974 12.5733 86.8739 12.9051C86.5503 13.2369 86.3318 13.6568 86.2457 14.1122C86.1595 14.5676 86.2097 15.0383 86.3897 15.4654C86.5698 15.8924 86.8718 16.2569 87.258 16.5131C87.6442 16.7694 88.0974 16.906 88.5609 16.906C88.8791 16.9201 89.1967 16.8669 89.4928 16.7497C89.789 16.6325 90.057 16.4541 90.2794 16.226C90.5018 15.998 90.6734 15.7256 90.7831 15.4265C90.8928 15.1275 90.9381 14.8087 90.9159 14.491Z" fill="#333333"/>
<path d="M103.051 16.47C103.051 18.747 101.072 19.717 98.9339 19.717C98.07 19.7952 97.2026 19.6125 96.4437 19.1925C95.6848 18.7725 95.0693 18.1345 94.6769 17.361L97.2499 15.896C97.354 16.2535 97.5776 16.5645 97.8833 16.7771C98.1891 16.9897 98.5585 17.0909 98.9299 17.064C99.6419 17.064 99.9989 16.846 99.9989 16.451C99.9989 15.361 95.1279 15.936 95.1279 12.511C95.1279 10.352 96.9499 9.26397 99.0089 9.26397C99.7829 9.23948 100.549 9.42307 101.228 9.7956C101.907 10.1681 102.474 10.716 102.869 11.382L100.335 12.748C100.224 12.4887 100.039 12.2678 99.803 12.1129C99.5672 11.958 99.291 11.876 99.0089 11.877C98.4939 11.877 98.1769 12.077 98.1769 12.431C98.1809 13.56 103.051 12.807 103.051 16.47Z" fill="#333333"/>
<path d="M113.9 9.54097V19.441H110.93V18.51C110.587 18.9208 110.152 19.2445 109.66 19.4545C109.168 19.6645 108.634 19.7548 108.1 19.718C106.1 19.718 104.4 18.293 104.4 15.618V9.54097H107.37V15.183C107.345 15.4188 107.372 15.6571 107.449 15.8815C107.525 16.1059 107.65 16.3108 107.814 16.4821C107.978 16.6535 108.177 16.787 108.398 16.8735C108.618 16.96 108.855 16.9974 109.092 16.983C110.181 16.983 110.933 16.35 110.933 14.944V9.54398L113.9 9.54097Z" fill="#333333"/>
<path d="M130.93 13.362V19.44H127.96V13.619C127.96 12.629 127.485 11.996 126.535 11.996C125.545 11.996 124.99 12.689 124.99 13.857V19.44H122.021V13.619C122.021 12.629 121.546 11.996 120.595 11.996C119.605 11.996 119.051 12.689 119.051 13.857V19.44H116.081V9.53998H119.051V10.45C119.359 10.0463 119.763 9.72611 120.226 9.51876C120.69 9.31141 121.198 9.22347 121.704 9.26297C122.212 9.23812 122.718 9.34535 123.173 9.57423C123.627 9.80312 124.014 10.1458 124.297 10.569C124.626 10.1263 125.062 9.77431 125.564 9.54591C126.066 9.31751 126.618 9.22017 127.168 9.26297C129.441 9.26397 130.93 10.887 130.93 13.362Z" fill="#333333"/>
<path d="M133.442 9.47997C134.659 9.47997 135.646 8.49321 135.646 7.27597C135.646 6.05874 134.659 5.07198 133.442 5.07198C132.225 5.07198 131.238 6.05874 131.238 7.27597C131.238 8.49321 132.225 9.47997 133.442 9.47997Z" fill="#333333"/>
</svg>
