<svg width="24" height="23" viewBox="0 0 24 23" fill="none" xmlns="http://www.w3.org/2000/svg">
<path d="M23.5969 10.2185L12.8289 0.325705C12.3563 -0.108584 11.6435 -0.108537 11.1711 0.325658L0.403032 10.2185C0.0244238 10.5664 -0.100638 11.1023 0.0843299 11.5839C0.269345 12.0654 0.719812 12.3765 1.23201 12.3765H2.95185V22.2883C2.95185 22.6813 3.26788 23 3.65765 23H9.55984C9.94961 23 10.2656 22.6814 10.2656 22.2883V16.2702H13.7345V22.2884C13.7345 22.6814 14.0505 23 14.4403 23H20.3422C20.7319 23 21.048 22.6814 21.048 22.2884V12.3765H22.7681C23.2803 12.3765 23.7308 12.0654 23.9158 11.5839C24.1006 11.1023 23.9755 10.5664 23.5969 10.2185Z" fill="white"/>
<path d="M20.8636 1.42044H16.1237L21.5694 6.41299V2.13201C21.5694 1.73903 21.2534 1.42044 20.8636 1.42044Z" fill="white"/>
</svg>
