<svg width="186" height="25" viewBox="0 0 186 25" fill="none" xmlns="http://www.w3.org/2000/svg">
<path d="M20.56 19L25.82 4.4H29.14L34.56 19H32.54L27.64 5.68L28.6 6.16H26.24L27.26 5.68L22.52 19H20.56ZM23.7 14.64L24.36 12.88H30.66L31.32 14.64H23.7ZM40.4181 19.32C39.0181 19.32 37.9315 19.02 37.1581 18.42C36.3981 17.82 36.0048 17 35.9781 15.96H37.7781C37.8048 16.3733 38.0115 16.7667 38.3981 17.14C38.7981 17.5 39.4715 17.68 40.4181 17.68C41.2715 17.68 41.9248 17.5133 42.3781 17.18C42.8315 16.8333 43.0581 16.4133 43.0581 15.92C43.0581 15.48 42.8915 15.14 42.5581 14.9C42.2248 14.6467 41.6848 14.48 40.9381 14.4L39.7781 14.28C38.7648 14.1733 37.9381 13.8733 37.2981 13.38C36.6581 12.8733 36.3381 12.1667 36.3381 11.26C36.3381 10.58 36.5115 10 36.8581 9.52C37.2048 9.02667 37.6848 8.65333 38.2981 8.4C38.9115 8.13333 39.6181 8 40.4181 8C41.6181 8 42.5915 8.26667 43.3381 8.8C44.0848 9.33333 44.4715 10.1267 44.4981 11.18H42.6981C42.6848 10.7533 42.4848 10.3933 42.0981 10.1C41.7248 9.79333 41.1648 9.64 40.4181 9.64C39.6715 9.64 39.1048 9.79333 38.7181 10.1C38.3315 10.4067 38.1381 10.7933 38.1381 11.26C38.1381 11.66 38.2715 11.98 38.5381 12.22C38.8181 12.46 39.2715 12.6133 39.8981 12.68L41.0581 12.8C42.2048 12.92 43.1248 13.24 43.8181 13.76C44.5115 14.2667 44.8581 14.9867 44.8581 15.92C44.8581 16.5867 44.6648 17.18 44.2781 17.7C43.9048 18.2067 43.3848 18.6067 42.7181 18.9C42.0515 19.18 41.2848 19.32 40.4181 19.32ZM52.5608 19.36C51.6274 19.36 50.8074 19.2 50.1008 18.88C49.3941 18.56 48.7941 18.14 48.3008 17.62C47.8208 17.0867 47.4541 16.4933 47.2008 15.84C46.9608 15.1867 46.8408 14.52 46.8408 13.84V13.48C46.8408 12.8 46.9674 12.1333 47.2208 11.48C47.4741 10.8133 47.8474 10.22 48.3408 9.7C48.8341 9.16667 49.4341 8.74667 50.1408 8.44C50.8474 8.12 51.6541 7.96 52.5608 7.96C53.4674 7.96 54.2741 8.12 54.9808 8.44C55.6874 8.74667 56.2874 9.16667 56.7808 9.7C57.2741 10.22 57.6474 10.8133 57.9008 11.48C58.1541 12.1333 58.2808 12.8 58.2808 13.48V13.84C58.2808 14.52 58.1541 15.1867 57.9008 15.84C57.6608 16.4933 57.2941 17.0867 56.8008 17.62C56.3208 18.14 55.7274 18.56 55.0208 18.88C54.3141 19.2 53.4941 19.36 52.5608 19.36ZM52.5608 17.64C53.3608 17.64 54.0408 17.4667 54.6008 17.12C55.1741 16.76 55.6074 16.28 55.9008 15.68C56.2074 15.08 56.3608 14.4067 56.3608 13.66C56.3608 12.9 56.2074 12.22 55.9008 11.62C55.5941 11.02 55.1541 10.5467 54.5808 10.2C54.0208 9.85333 53.3474 9.68 52.5608 9.68C51.7874 9.68 51.1141 9.85333 50.5408 10.2C49.9674 10.5467 49.5274 11.02 49.2208 11.62C48.9141 12.22 48.7608 12.9 48.7608 13.66C48.7608 14.4067 48.9074 15.08 49.2008 15.68C49.5074 16.28 49.9408 16.76 50.5008 17.12C51.0741 17.4667 51.7608 17.64 52.5608 17.64ZM65.6964 19.36C64.7631 19.36 63.9564 19.2 63.2764 18.88C62.5964 18.56 62.0431 18.14 61.6164 17.62C61.1897 17.0867 60.8697 16.4933 60.6564 15.84C60.4564 15.1867 60.3564 14.52 60.3564 13.84V13.48C60.3564 12.7867 60.4564 12.1133 60.6564 11.46C60.8697 10.8067 61.1897 10.22 61.6164 9.7C62.0431 9.16667 62.5831 8.74667 63.2364 8.44C63.9031 8.12 64.6831 7.96 65.5764 7.96C66.7364 7.96 67.6897 8.21333 68.4364 8.72C69.1964 9.21333 69.7564 9.85333 70.1164 10.64C70.4897 11.4267 70.6764 12.2667 70.6764 13.16V14.02H61.1964V12.58H69.2764L68.8364 13.36C68.8364 12.6 68.7164 11.9467 68.4764 11.4C68.2364 10.84 67.8764 10.4067 67.3964 10.1C66.9164 9.79333 66.3097 9.64 65.5764 9.64C64.8164 9.64 64.1831 9.81333 63.6764 10.16C63.1831 10.5067 62.8097 10.98 62.5564 11.58C62.3164 12.18 62.1964 12.8733 62.1964 13.66C62.1964 14.42 62.3164 15.1067 62.5564 15.72C62.8097 16.32 63.1964 16.8 63.7164 17.16C64.2364 17.5067 64.8964 17.68 65.6964 17.68C66.5364 17.68 67.2164 17.4933 67.7364 17.12C68.2697 16.7467 68.5897 16.3133 68.6964 15.82H70.4964C70.3497 16.5533 70.0564 17.1867 69.6164 17.72C69.1764 18.2533 68.6231 18.66 67.9564 18.94C67.2897 19.22 66.5364 19.36 65.6964 19.36ZM79.0425 19.36C78.1625 19.36 77.3758 19.1667 76.6825 18.78C76.0025 18.3933 75.4625 17.8333 75.0625 17.1C74.6625 16.3533 74.4425 15.46 74.4025 14.42H74.9225V19H73.4025V4.4H75.3225V11.5L74.6425 12.96C74.6958 11.8 74.9292 10.8533 75.3425 10.12C75.7558 9.38667 76.2958 8.84667 76.9625 8.5C77.6425 8.14 78.3892 7.96 79.2025 7.96C79.9625 7.96 80.6558 8.10667 81.2825 8.4C81.9092 8.68 82.4492 9.07333 82.9025 9.58C83.3558 10.0733 83.7025 10.6533 83.9425 11.32C84.1825 11.9733 84.3025 12.68 84.3025 13.44V13.8C84.3025 14.56 84.1758 15.2733 83.9225 15.94C83.6825 16.6067 83.3292 17.2 82.8625 17.72C82.3958 18.2267 81.8358 18.6267 81.1825 18.92C80.5425 19.2133 79.8292 19.36 79.0425 19.36ZM78.8225 17.68C79.5425 17.68 80.1692 17.5067 80.7025 17.16C81.2358 16.8133 81.6492 16.34 81.9425 15.74C82.2358 15.1267 82.3825 14.42 82.3825 13.62C82.3825 12.82 82.2292 12.12 81.9225 11.52C81.6292 10.92 81.2158 10.46 80.6825 10.14C80.1492 9.80667 79.5292 9.64 78.8225 9.64C78.1825 9.64 77.5892 9.78667 77.0425 10.08C76.4958 10.36 76.0558 10.7733 75.7225 11.32C75.4025 11.8533 75.2425 12.5 75.2425 13.26V14.18C75.2425 14.9133 75.4092 15.54 75.7425 16.06C76.0758 16.58 76.5158 16.98 77.0625 17.26C77.6092 17.54 78.1958 17.68 78.8225 17.68ZM87.7116 19V8.32H89.6316V19H87.7116ZM86.0716 9.84V8.32H89.6316V9.84H86.0716ZM88.2516 6.6C87.8249 6.6 87.5049 6.48667 87.2916 6.26C87.0916 6.03333 86.9916 5.74667 86.9916 5.4C86.9916 5.05333 87.0916 4.76667 87.2916 4.54C87.5049 4.31333 87.8249 4.2 88.2516 4.2C88.6782 4.2 88.9916 4.31333 89.1916 4.54C89.4049 4.76667 89.5116 5.05333 89.5116 5.4C89.5116 5.74667 89.4049 6.03333 89.1916 6.26C88.9916 6.48667 88.6782 6.6 88.2516 6.6ZM107.415 23.22C106.695 23.22 106.068 23.1133 105.535 22.9C105.001 22.7 104.588 22.3467 104.295 21.84C104.001 21.3333 103.855 20.64 103.855 19.76V18H105.655V20.06C105.655 20.5 105.781 20.8467 106.035 21.1C106.301 21.3533 106.648 21.48 107.075 21.48H109.555V23.22H107.415ZM104.715 19.36C103.408 19.36 102.281 19.1267 101.335 18.66C100.388 18.1933 99.608 17.58 98.9947 16.82C98.3814 16.06 97.9214 15.2467 97.6147 14.38C97.3214 13.5133 97.1747 12.68 97.1747 11.88V11.44C97.1747 10.5733 97.328 9.7 97.6347 8.82C97.9414 7.94 98.408 7.14 99.0347 6.42C99.6614 5.68667 100.441 5.1 101.375 4.66C102.321 4.22 103.435 4 104.715 4C105.995 4 107.101 4.22 108.035 4.66C108.981 5.1 109.768 5.68667 110.395 6.42C111.021 7.14 111.488 7.94 111.795 8.82C112.101 9.7 112.255 10.5733 112.255 11.44V11.88C112.255 12.68 112.101 13.5133 111.795 14.38C111.501 15.2467 111.048 16.06 110.435 16.82C109.821 17.58 109.041 18.1933 108.095 18.66C107.148 19.1267 106.021 19.36 104.715 19.36ZM104.715 17.56C105.568 17.56 106.335 17.4 107.015 17.08C107.708 16.76 108.295 16.3267 108.775 15.78C109.255 15.22 109.621 14.5933 109.875 13.9C110.128 13.1933 110.255 12.4533 110.255 11.68C110.255 10.8667 110.128 10.1067 109.875 9.4C109.621 8.69333 109.255 8.07333 108.775 7.54C108.295 6.99333 107.708 6.56667 107.015 6.26C106.335 5.95333 105.568 5.8 104.715 5.8C103.861 5.8 103.088 5.95333 102.395 6.26C101.715 6.56667 101.135 6.99333 100.655 7.54C100.175 8.07333 99.808 8.69333 99.5547 9.4C99.3014 10.1067 99.1747 10.8667 99.1747 11.68C99.1747 12.4533 99.3014 13.1933 99.5547 13.9C99.808 14.5933 100.175 15.22 100.655 15.78C101.135 16.3267 101.715 16.76 102.395 17.08C103.088 17.4 103.861 17.56 104.715 17.56ZM118.899 19.32C117.633 19.32 116.659 18.9067 115.979 18.08C115.299 17.2533 114.959 16.06 114.959 14.5V8.3H116.879V14.88C116.879 15.72 117.106 16.38 117.559 16.86C118.013 17.3267 118.626 17.56 119.399 17.56C120.199 17.56 120.853 17.3067 121.359 16.8C121.866 16.28 122.119 15.5733 122.119 14.68V8.3H124.039V19H122.519V14.42H122.759C122.759 15.4733 122.619 16.3667 122.339 17.1C122.059 17.82 121.639 18.3733 121.079 18.76C120.533 19.1333 119.833 19.32 118.979 19.32H118.899ZM134.218 19V15.8H133.898V12.1C133.898 11.3667 133.705 10.8133 133.318 10.44C132.945 10.0667 132.391 9.88 131.658 9.88C131.245 9.88 130.818 9.88667 130.378 9.9C129.938 9.91333 129.518 9.92667 129.118 9.94C128.718 9.95333 128.371 9.97333 128.078 10V8.32C128.371 8.29333 128.678 8.27333 128.998 8.26C129.331 8.23333 129.671 8.22 130.018 8.22C130.365 8.20667 130.698 8.2 131.018 8.2C132.111 8.2 133.005 8.33333 133.698 8.6C134.391 8.85333 134.905 9.27333 135.238 9.86C135.571 10.4467 135.738 11.24 135.738 12.24V19H134.218ZM130.718 19.28C129.918 19.28 129.225 19.1467 128.638 18.88C128.065 18.6 127.618 18.2 127.298 17.68C126.991 17.16 126.838 16.5333 126.838 15.8C126.838 15.04 127.005 14.4067 127.338 13.9C127.685 13.3933 128.185 13.0133 128.838 12.76C129.491 12.4933 130.278 12.36 131.198 12.36H134.098V13.8H131.118C130.345 13.8 129.751 13.9867 129.338 14.36C128.925 14.7333 128.718 15.2133 128.718 15.8C128.718 16.3867 128.925 16.86 129.338 17.22C129.751 17.58 130.345 17.76 131.118 17.76C131.571 17.76 132.005 17.68 132.418 17.52C132.831 17.3467 133.171 17.0667 133.438 16.68C133.718 16.28 133.871 15.7333 133.898 15.04L134.418 15.8C134.351 16.56 134.165 17.2 133.858 17.72C133.565 18.2267 133.151 18.6133 132.618 18.88C132.098 19.1467 131.465 19.28 130.718 19.28ZM139.262 19V8.32H140.782V12.72H140.702C140.702 11.16 141.042 10.02 141.722 9.3C142.415 8.56667 143.449 8.2 144.822 8.2H145.182V9.92H144.502C143.435 9.92 142.615 10.2067 142.042 10.78C141.469 11.34 141.182 12.1533 141.182 13.22V19H139.262ZM151.82 19.12C151.02 19.12 150.327 19.0067 149.74 18.78C149.167 18.5533 148.72 18.1667 148.4 17.62C148.094 17.06 147.94 16.3067 147.94 15.36V5.08H149.78V15.6C149.78 16.1733 149.934 16.62 150.24 16.94C150.56 17.2467 151.007 17.4 151.58 17.4H153.46V19.12H151.82ZM146.1 9.76V8.32H153.46V9.76H146.1ZM160.638 19.36C159.704 19.36 158.898 19.2 158.218 18.88C157.538 18.56 156.984 18.14 156.558 17.62C156.131 17.0867 155.811 16.4933 155.598 15.84C155.398 15.1867 155.298 14.52 155.298 13.84V13.48C155.298 12.7867 155.398 12.1133 155.598 11.46C155.811 10.8067 156.131 10.22 156.558 9.7C156.984 9.16667 157.524 8.74667 158.178 8.44C158.844 8.12 159.624 7.96 160.518 7.96C161.678 7.96 162.631 8.21333 163.378 8.72C164.138 9.21333 164.698 9.85333 165.058 10.64C165.431 11.4267 165.618 12.2667 165.618 13.16V14.02H156.138V12.58H164.218L163.778 13.36C163.778 12.6 163.658 11.9467 163.418 11.4C163.178 10.84 162.818 10.4067 162.338 10.1C161.858 9.79333 161.251 9.64 160.518 9.64C159.758 9.64 159.124 9.81333 158.618 10.16C158.124 10.5067 157.751 10.98 157.498 11.58C157.258 12.18 157.138 12.8733 157.138 13.66C157.138 14.42 157.258 15.1067 157.498 15.72C157.751 16.32 158.138 16.8 158.658 17.16C159.178 17.5067 159.838 17.68 160.638 17.68C161.478 17.68 162.158 17.4933 162.678 17.12C163.211 16.7467 163.531 16.3133 163.638 15.82H165.438C165.291 16.5533 164.998 17.1867 164.558 17.72C164.118 18.2533 163.564 18.66 162.898 18.94C162.231 19.22 161.478 19.36 160.638 19.36ZM168.344 19V8.32H169.864V12.72H169.784C169.784 11.16 170.124 10.02 170.804 9.3C171.497 8.56667 172.531 8.2 173.904 8.2H174.264V9.92H173.584C172.517 9.92 171.697 10.2067 171.124 10.78C170.551 11.34 170.264 12.1533 170.264 13.22V19H168.344ZM180.047 19.32C178.647 19.32 177.56 19.02 176.787 18.42C176.027 17.82 175.634 17 175.607 15.96H177.407C177.434 16.3733 177.64 16.7667 178.027 17.14C178.427 17.5 179.1 17.68 180.047 17.68C180.9 17.68 181.554 17.5133 182.007 17.18C182.46 16.8333 182.687 16.4133 182.687 15.92C182.687 15.48 182.52 15.14 182.187 14.9C181.854 14.6467 181.314 14.48 180.567 14.4L179.407 14.28C178.394 14.1733 177.567 13.8733 176.927 13.38C176.287 12.8733 175.967 12.1667 175.967 11.26C175.967 10.58 176.14 10 176.487 9.52C176.834 9.02667 177.314 8.65333 177.927 8.4C178.54 8.13333 179.247 8 180.047 8C181.247 8 182.22 8.26667 182.967 8.8C183.714 9.33333 184.1 10.1267 184.127 11.18H182.327C182.314 10.7533 182.114 10.3933 181.727 10.1C181.354 9.79333 180.794 9.64 180.047 9.64C179.3 9.64 178.734 9.79333 178.347 10.1C177.96 10.4067 177.767 10.7933 177.767 11.26C177.767 11.66 177.9 11.98 178.167 12.22C178.447 12.46 178.9 12.6133 179.527 12.68L180.687 12.8C181.834 12.92 182.754 13.24 183.447 13.76C184.14 14.2667 184.487 14.9867 184.487 15.92C184.487 16.5867 184.294 17.18 183.907 17.7C183.534 18.2067 183.014 18.6067 182.347 18.9C181.68 19.18 180.914 19.32 180.047 19.32Z" fill="white"/>
<circle cx="7.5" cy="8.5" r="2.5" fill="#FFC94D"/>
<circle cx="2.5" cy="15.5" r="2.5" fill="#FFC94D"/>
<circle cx="12.5" cy="15.5" r="2.5" fill="#FFC94D"/>
</svg>
