<svg width="433" height="60" viewBox="0 0 433 60" fill="none" xmlns="http://www.w3.org/2000/svg">
<g clip-path="url(#clip0)">
<path d="M220.798 52.8134C220.362 53.8982 219.882 53.6948 219.533 53.6948C213.249 54.2371 206.922 54.3049 200.595 54.3727C198.762 54.3727 196.929 54.3049 195.097 54.4405C189.293 54.7795 183.533 55.1863 177.729 55.5931C177.118 55.6609 176.42 55.7287 175.286 54.3727C190.82 53.5592 205.656 52.1354 220.798 52.8134Z" fill="#143B3E"/>
<path d="M122.748 57.7626C122.835 57.7626 122.966 57.8982 122.966 58.0338C123.097 58.5762 122.486 58.1694 123.184 58.5084C114.37 59.1185 105.905 61.1524 97.3083 59.2541C104.465 58.644 111.621 58.1016 118.821 57.5592C120.086 57.3558 121.439 57.627 122.748 57.7626Z" fill="#143B3E"/>
<path d="M108.217 52.6101C110.355 51.7965 117.206 52.0677 121.177 53.2202C115.33 54.5762 110.268 54.2372 108.217 52.6101Z" fill="#143B3E"/>
<path d="M151.722 56.2711C147.97 57.4914 144.173 57.4914 140.421 56.5422C144.217 56.8134 147.926 55.1863 151.722 56.2711Z" fill="#143B3E"/>
<path d="M62.7049 41.6271C60.5231 41.4915 58.3414 41.4237 56.1159 41.2881C58.3414 41.4915 60.5231 40.5423 62.7049 41.6271Z" fill="#143B3E"/>
<path d="M172.973 54.7795C173.104 55.0507 173.017 55.2541 172.711 55.1863C172.624 55.1863 172.58 55.0507 172.493 54.9829C172.537 54.9151 172.624 54.7795 172.711 54.7117C172.799 54.7117 172.973 54.7117 172.973 54.7795Z" fill="#143B3E"/>
<path d="M346.95 15.7286C344.812 15.9997 342.674 16.0675 340.535 16.0675C338.397 16.0675 336.346 15.0506 334.208 14.8472C345.772 12.5421 357.422 13.0167 368.986 12.4743C380.68 11.9319 392.331 10.5082 404.026 10.8472C398.353 12.2031 392.68 13.6947 386.92 14.0336C383.997 14.237 381.16 15.1184 378.15 15.0506C372.259 14.915 366.324 15.254 360.433 15.254C355.939 15.254 351.444 15.1862 346.95 15.7286Z" fill="#143B3E"/>
<path d="M378.237 6.64394C364.579 6.91512 350.964 8.13546 337.306 7.11851C335.125 7.93207 328.928 7.86428 327.052 6.91512C329.277 6.10156 331.197 5.69478 333.205 6.10156C336.259 6.16936 339.357 6.64394 342.368 6.16936C347.343 5.49139 352.361 6.10156 357.335 5.76258C362.004 5.4236 366.673 5.15241 371.386 4.94902C376.84 4.74563 382.295 2.91512 387.793 4.67783C388.36 4.88122 389.015 4.74563 389.626 4.67783C394.077 4.20326 398.571 3.72868 403.022 3.3219C404.898 3.18631 406.818 2.98292 409.131 3.59309C407.909 5.08461 406.731 4.94902 405.684 5.01682C396.52 5.55919 387.4 6.44055 378.237 6.64394Z" fill="#143B3E"/>
<path d="M310.121 2.23716C310.034 2.23716 309.903 2.10157 309.903 1.96597C309.772 1.4236 310.383 1.83038 309.685 1.4914C318.499 0.881228 326.964 -1.15267 335.561 0.745634C328.404 1.3558 321.248 1.89818 314.048 2.44055C312.783 2.57614 311.474 2.30496 310.121 2.23716Z" fill="#143B3E"/>
<path d="M431.167 18.8475C428.942 18.8475 426.629 18.7119 424.709 20.7458C423.225 22.3051 421.393 21.8305 419.735 22.3051C419.036 22.5085 418.295 22.3051 417.815 23.1864C415.502 23.1864 413.102 23.1864 410.266 22.5763C412.142 21.4237 413.538 22.1017 414.847 21.2203C411.531 21.017 408.171 21.017 404.855 20.678C404.069 20.6102 403.24 20.4746 402.455 20.4068C403.197 20.2712 403.851 19.7288 404.157 18.2373C404.331 17.2881 405.16 17.4915 405.727 17.3559C406.949 17.0847 408.215 16.8136 409.437 16.4746C409.393 16.2034 409.349 15.9322 409.349 15.661C406.6 15.9322 403.764 16 401.058 16.6102C394.906 17.9661 388.709 17.6949 382.513 18.1695C381.597 18.2373 380.549 17.7627 379.851 19.0508C378.455 19.0508 377.015 19.0508 375.619 19.1186C373.786 19.1864 371.953 18.7797 370.164 19.661C368.593 19.661 367.022 19.5932 365.451 19.5932C364.361 19.3898 363.27 19.4576 362.222 19.7966C362.004 19.8644 361.83 19.9322 361.611 20C358.077 20.0678 354.542 20.4068 351.008 20.9492C351.008 20.7458 351.008 20.5424 351.008 20.339C350.223 20.1356 349.437 20.339 348.739 19.5932C346.644 17.2881 344.332 18.4407 341.888 18.5763C342.499 20.2034 343.677 19.8644 344.288 20.7458C341.975 20.8814 339.706 21.0847 337.394 21.2203C335.823 21.2881 334.208 21.5593 333.117 19.2542C332.724 18.3729 331.677 18.4407 330.848 18.5085C329.844 17.8305 329.059 16.7458 327.794 16.8814C326.615 17.017 325.175 17.1525 325.874 14.3051C326.048 13.6271 325.263 13.3559 324.783 13.2203C322.514 12.339 320.157 12.1356 317.845 12.2034C313.917 12.339 309.946 12.5424 306.019 12.7458C306.979 12.6102 307.983 12.4746 308.943 12.339C310.121 12.2034 295.852 8.54238 283.896 6.37289H309.51C311.779 6.37289 253.918 1.76272 244.274 1.96611C242.049 1.76272 150.981 3.59323 108.261 4.33899C107.563 4.33899 107.126 5.01695 106.995 5.83051C103.068 5.76272 99.141 5.08475 95.2137 5.08475C86.1375 5.15255 77.0612 5.62712 67.9849 5.62712C63.9267 5.62712 59.8686 6.30509 55.8104 6.50848C52.4068 6.71187 48.9596 7.25424 45.556 8.0678C39.7088 9.42373 33.8179 9.83051 27.927 10.3051C25.0907 10.5085 22.2544 10.7119 19.4617 11.7966C18.5017 12.2034 17.4544 12.2034 16.4508 12.2712C11.2145 12.4746 6.02177 12.678 0.829084 12.8814C0.65454 12.8814 0.523632 13.1525 0 13.6271C2.6618 14.5085 5.14905 14.6441 7.59266 14.7797C10.3417 14.9831 13.0908 14.8475 15.7962 15.8644C16.538 16.7458 16.669 17.9661 16.8871 19.1864C14.6181 19.1864 13.8762 20.4746 15.7962 21.2203C15.4471 22.3729 14.6617 21.8983 14.269 22.4407C13.5272 22.4407 12.7417 22.3729 11.9999 22.3729C11.8254 22.5085 11.6944 22.5763 11.5199 22.6441C11.6944 22.5763 11.869 22.5085 11.9999 22.3729C10.8654 22.1695 8.07266 23.0508 7.72357 23.0508C6.45813 22.9831 6.67631 23.3898 7.72357 23.7966C8.20357 25.0847 9.73083 27.8644 11.2581 30.5085C10.6472 30.5763 10.0363 30.6441 9.42537 30.6441C8.07266 30.5085 7.98539 32.0678 8.63993 33.9661C10.0799 36.0678 11.869 36.678 13.8762 36.678C16.5817 36.7458 19.3307 36.6102 22.6907 37.2881C20.8144 38.4407 19.418 37.7627 18.1089 38.6441C21.4253 38.8475 24.7852 38.8475 28.1016 39.1864C28.887 39.2542 29.7161 39.3898 30.5016 39.4576C29.7597 39.5932 29.1052 40.1356 28.7998 41.6271C28.6252 42.5763 27.7961 42.3729 27.2289 42.5085C26.0071 42.7797 24.7416 43.0508 23.5198 43.3898C23.5634 43.661 23.6071 43.9322 23.6071 44.2034C26.3561 43.9322 29.1925 43.8644 31.8979 43.2542C38.0506 41.8983 44.2469 42.1695 50.4432 41.6949C51.3596 41.6271 52.4068 42.1017 53.105 40.8136C54.5014 40.8136 55.9413 40.8136 57.3377 40.7458C59.1704 40.678 61.0031 41.0847 62.7922 40.2034C64.3631 40.2034 65.934 40.2712 67.5049 40.2712C68.5958 40.4746 69.6867 40.4068 70.7339 40.0678C70.9521 40 71.1267 39.9322 71.3448 39.8644C73.6139 39.7966 75.8394 39.661 78.0648 39.3898C70.6467 41.2203 63.2286 43.0508 55.8541 44.9492C55.5486 44.9492 55.1995 44.9492 54.8941 44.9492C53.8468 44.9492 52.7996 45.0169 51.7959 45.1525C45.3814 45.2881 38.9669 45.4237 32.5961 45.4915C32.5961 45.4237 32.5961 45.2881 32.5525 45.2203C32.4652 44.9492 32.1161 44.7458 31.9415 44.6102C31.5052 44.678 31.1561 44.8814 31.1997 45.2881C31.1997 45.3559 31.1997 45.4237 31.2434 45.4915C30.0652 45.4915 28.9307 45.5593 27.7525 45.5593C27.6216 45.4237 27.5343 45.2881 27.4034 45.2203C27.3598 45.1525 27.2289 45.2881 27.1852 45.3559C27.1416 45.4237 27.098 45.4915 27.098 45.5593C25.658 45.5593 24.218 45.6271 22.778 45.6271C21.7307 45.4237 20.6835 45.3559 19.6362 45.6949C19.2871 45.6949 18.9817 45.6949 18.6326 45.6949C18.3271 45.6949 18.0653 45.8305 17.8471 46.1017C16.4944 46.1017 15.0981 46.0339 13.7453 46.0339C10.909 46.1017 8.2472 45.1525 5.58541 46.3729C5.49814 48 6.32722 48.1356 7.19994 48.1356C9.55628 48.0678 11.9563 48.339 14.1817 47.661C15.1853 47.3898 31.6797 49.6271 38.356 49.4915C37.4833 50.5085 63.4031 52.2034 75.5775 51.661L185.06 47.1186C182.311 47.3898 179.518 47.7288 176.726 48.1356C181.962 48.4068 187.198 48.8814 192.435 48.9491C210.282 49.0169 228.129 49.2203 245.976 49.6949C255.969 49.9661 265.961 49.3559 275.954 49.2881C281.758 49.2203 287.605 49.3559 293.408 49.4237C300.652 49.5593 307.896 49.2203 315.139 49.2881C315.401 49.1525 315.619 49.0847 315.881 49.0169C315.619 49.0847 315.357 49.1525 315.139 49.2881C317.103 49.9661 319.241 49.0847 321.161 50.4407C315.052 50.7119 308.986 50.983 302.877 51.2542C297.772 50.6441 292.71 51.661 287.648 51.661C286.558 51.661 285.423 51.8644 284.419 52.678C284.245 52.678 284.027 52.6102 283.852 52.6102C281.234 50.9152 278.485 51.5254 275.736 51.661C275.343 51.661 274.95 52.4068 274.558 52.8136C273.161 52.6102 271.721 52.5424 270.325 52.2034C268.274 51.7288 266.31 51.5932 264.26 52.0678C260.551 53.0169 256.754 52.678 253.001 52.5424C251.911 52.4746 250.82 52.2712 249.772 52.9491C261.903 54.6441 274.078 53.6271 286.252 54.2373C292.928 53.7627 299.605 54.3729 306.281 54.5763C307.197 54.5763 308.114 54.5763 308.943 54.0339C314.572 53.9661 320.157 53.6949 325.786 53.7627C329.757 53.8305 333.728 54.5085 337.699 54.5085C346.775 54.4407 355.852 53.9661 364.928 53.9661C368.986 53.9661 373.044 53.2881 377.102 53.0847C380.506 52.8814 383.953 52.339 387.357 51.5254C393.204 50.1695 399.095 49.7627 404.986 49.2881C407.822 49.0847 410.658 48.8814 413.451 47.7966C414.411 47.3898 415.458 47.3898 416.462 47.322C421.655 47.1186 419.778 44.8136 417.073 43.7288C416.331 42.8475 416.2 41.6271 415.982 40.4068C418.251 40.4068 418.993 39.1186 417.073 38.3729C417.422 37.2203 418.207 37.6949 418.6 37.1525C419.342 37.1525 420.127 37.2203 420.869 37.2203C421.044 37.0847 421.175 37.0169 421.349 36.9492C421.175 37.0169 421 37.0847 420.869 37.2203C422.004 37.4237 423.138 37.6271 424.142 36.6102C424.491 36.5424 424.84 36.5424 425.189 36.4746C425.32 36.4746 425.451 36.4746 425.582 36.4746C426.585 36.8814 427.764 36.9492 428.418 35.5932C429.858 32.6102 431.778 29.8983 431.953 26.1017C432.04 24.4746 432.651 23.1864 432.913 21.7627C433.262 20 432.782 18.8475 431.167 18.8475ZM107.126 44.1356C103.112 44.2034 99.0537 44.2712 95.0392 44.339C94.1228 44.1356 93.2501 43.9322 92.3338 43.9322C90.1956 43.9322 88.0574 44 85.9193 44.2712C84.3484 44.4746 82.7775 44.5424 81.2066 44.6102L75.5339 44.7458C74.7485 44.7458 74.0066 44.7458 73.2212 44.7458C77.4975 43.661 81.7738 42.6441 86.0502 41.5593C87.5774 41.9661 89.2356 41.4237 90.9374 41.2881C90.8065 40.9492 90.632 40.678 90.4574 40.4746C92.8574 39.8644 95.2137 39.2542 97.6137 38.7119C98.3992 38.9153 99.141 39.3898 99.7082 40.678C100.101 41.5593 101.148 41.4915 101.977 41.4237C102.981 42.1017 103.766 43.1864 105.032 43.0508C105.948 42.9831 107.039 42.8475 107.126 44.1356ZM245.932 7.25424C240.216 8.47458 234.456 9.69492 228.74 10.9153C214.776 10.7797 200.813 10.6441 186.849 10.2373C176.857 9.96611 166.864 10.5763 156.871 10.6441C151.068 10.7119 145.221 10.5763 139.417 10.5085C132.173 10.3729 124.93 10.7119 117.686 10.6441C117.424 10.7797 117.206 10.8475 116.944 10.9153C117.206 10.8475 117.468 10.7797 117.686 10.6441C115.723 9.96611 113.584 10.8475 111.665 9.49153C117.774 9.22034 123.839 8.94916 129.948 8.67797C135.053 9.28814 140.115 8.27119 145.177 8.27119C145.875 8.27119 146.573 8.20339 147.228 7.93221C148.188 7.93221 149.148 7.93221 150.108 7.86441C152.377 8.81356 154.777 8.33899 157.09 8.2034C157.308 8.2034 157.526 8 157.7 7.72882C159.359 7.72882 161.017 7.66102 162.675 7.66102C164.639 8.1356 166.602 8.20339 168.566 7.72882C168.871 7.66102 169.177 7.59323 169.482 7.52543C183.751 7.25424 198.064 7.05085 212.333 6.77967C212.245 6.91526 212.115 7.05085 212.027 7.32204C222.238 7.79662 232.274 7.32204 242.529 6.71187C243.707 6.71187 244.842 6.98306 245.932 7.25424ZM256.143 11.7288C253.001 11.5932 249.86 11.322 246.718 11.1186C249.642 10.5085 252.565 9.89831 255.489 9.28814C261.86 10.7119 268.23 12.0678 274.601 13.4915C273.423 13.6271 272.245 13.8983 271.067 14.3729C267.881 15.5254 264.521 14.3729 261.336 15.322C254.18 17.4237 246.936 16.2712 239.693 16.2712C236.551 15.9322 233.365 15.661 230.223 15.322C230.442 14.9831 230.703 14.7119 230.965 14.5085C232.711 14.1017 234.5 13.7627 236.245 13.3559C242.834 13.4237 249.467 12.7458 256.143 11.7288ZM291.139 10.7119C289.918 10.8475 288.739 11.0509 287.518 11.1864C287.081 11.2542 286.776 11.5932 286.645 12C281.714 10.9153 276.783 9.83051 271.809 8.74577C278.267 9.42373 284.681 10.0339 291.139 10.7119Z" fill="#143B3E"/>
<path d="M324.652 7.38958C322.514 8.20314 315.663 7.93196 311.692 6.77941C317.539 5.42348 322.601 5.76247 324.652 7.38958Z" fill="#143B3E"/>
<path d="M370.208 18.3049C372.39 18.4405 374.571 18.5083 376.797 18.6439C374.528 18.5083 372.346 19.4575 370.208 18.3049Z" fill="#143B3E"/>
<path d="M419.298 13.8304C417.684 13.8304 416.026 13.7626 414.411 13.7626C412.578 14.8473 410.789 14.4405 408.913 13.8982C410.091 13.0168 411.313 12.61 412.666 12.949C414.673 12.6778 416.68 12.949 418.687 12.3388C420.956 11.6609 423.356 11.9999 425.669 11.8643C426.542 11.8643 427.371 11.9999 427.284 13.627C424.666 14.8473 421.96 13.8982 419.298 13.8304Z" fill="#143B3E"/>
<path d="M353.67 18.8473C352.841 20.1354 351.968 20.2032 351.095 20.4066C351.095 17.8303 352.099 18.0337 353.67 18.8473Z" fill="#143B3E"/>
<path d="M401.844 14.5761C401.888 15.0507 401.538 15.1863 401.102 15.254C400.928 15.1185 400.578 14.9829 400.491 14.6439C400.317 14.1693 400.622 13.8981 400.971 13.8303C401.364 13.8303 401.844 13.8981 401.844 14.5761Z" fill="#143B3E"/>
<path d="M405.902 14.5083C405.858 14.5761 405.728 14.6439 405.684 14.6439C405.553 14.5761 405.466 14.4405 405.335 14.3049C405.466 14.2371 405.64 14.0337 405.771 14.0337C405.989 14.0337 406.033 14.3049 405.902 14.5083Z" fill="#143B3E"/>
</g>
<defs>
<clipPath id="clip0">
<rect width="433" height="60" fill="white"/>
</clipPath>
</defs>
</svg>
