<?xml version="1.0" standalone="no"?>
<svg xmlns="http://www.w3.org/2000/svg" width="32" height="32" stroke-width="1.5" stroke="#FFC94D" fill="none" stroke-linejoin="arcs" stroke-linecap="square" viewBox="0 0 24 24"> <g fill="none" fill-rule="evenodd"><rect width="24" height="24" style="stroke:rgba(0,0,0,0)"></rect><path d="M3.979,6.484 L7.787,10.292 L3.979,6.484 Z M10.291,7.787 L6.484,3.98 L10.291,7.787 Z M16.213,10.292 L20.021,6.484 L16.213,10.292 Z M17.516,3.98 L13.708,7.787 L17.516,3.98 Z M13.708,16.213 L17.516,20.021 L13.708,16.213 Z M20.021,17.517 L16.213,13.709 L20.021,17.517 Z M7.787,13.709 L3.979,17.517 L7.787,13.709 Z M6.484,20.021 L10.291,16.213 L6.484,20.021 Z M12,16.5 C14.485,16.5 16.5,14.485 16.5,12 C16.5,9.515 14.485,7.5 12,7.5 C9.515,7.5 7.5,9.515 7.5,12 C7.5,14.485 9.515,16.5 12,16.5 Z M12,22 C17.523,22 22,17.523 22,12 C22,6.478 17.523,2 12,2 C6.477,2 2,6.478 2,12 C2,17.523 6.477,22 12,22 Z" stroke="#FFC94D"></path></g></svg>